<?xml version="1.0" encoding="UTF-8"?> <svg xmlns="http://www.w3.org/2000/svg" width="249" height="182" viewBox="0 0 249 182" fill="none"> <path fill-rule="evenodd" clip-rule="evenodd" d="M107.792 35.4204C100.53 37.1854 94.5165 41.0729 91.4175 47.0089C88.3518 52.8813 88.1945 60.6498 92.3299 70.1238C88.9693 73.2987 88.4672 77.7849 90.1924 81.2186C91.9491 84.7149 95.9704 87.0509 101.44 85.9243L103.691 97.3386L104.692 97.1365L102.242 84.7132L101.747 84.8132L101.745 84.8056C101.662 84.8259 101.579 84.8453 101.496 84.8639L101.241 84.9154L101.242 84.9186C96.183 85.9593 92.6321 83.7985 91.0982 80.7456C89.5038 77.5723 90.0409 73.3608 93.4475 70.489L93.1897 70.1744L93.4131 70.073C89.2025 60.6353 89.3935 53.0907 92.3125 47.4993C95.2378 41.8958 100.961 38.1422 108.036 36.4226L107.792 35.4204ZM104.441 98.1606L123.973 103.366L124.222 102.374L104.689 97.168L104.441 98.1606Z" fill="white"></path> <path d="M91.4175 47.0089L92.7729 47.7154L91.4175 47.0089ZM107.792 35.4204L109.278 35.0507L108.917 33.5702L107.437 33.9301L107.792 35.4204ZM92.3299 70.1238L93.3772 71.2376L94.1644 70.494L93.7324 69.5044L92.3299 70.1238ZM90.1924 81.2186L88.825 81.9128L88.825 81.9128L90.1924 81.2186ZM101.44 85.9243L102.941 85.621L102.644 84.112L101.138 84.4222L101.44 85.9243ZM103.691 97.3386L102.19 97.6419L102.486 99.1452L103.988 98.8419L103.691 97.3386ZM104.692 97.1365L104.988 98.6398L106.49 98.3365L106.193 96.8332L104.692 97.1365ZM102.242 84.7132L103.743 84.41L103.447 82.9067L101.946 83.2099L102.242 84.7132ZM101.747 84.8132L100.255 85.1605L100.585 86.611L102.043 86.3165L101.747 84.8132ZM101.745 84.8056L103.237 84.4584L102.893 82.95L101.39 83.3153L101.745 84.8056ZM101.496 84.8639L101.792 86.3672L101.809 86.3639L101.825 86.3603L101.496 84.8639ZM101.241 84.9154L100.945 83.4121L99.4431 83.7154L99.7398 85.2188L101.241 84.9154ZM101.242 84.9186L101.544 86.4208L103.039 86.1132L102.743 84.6152L101.242 84.9186ZM91.0982 80.7456L92.4656 80.0514L92.4656 80.0514L91.0982 80.7456ZM93.4475 70.489L94.4299 71.6609L95.5905 70.6825L94.6317 69.5127L93.4475 70.489ZM93.1897 70.1744L92.5628 68.778L90.7393 69.606L92.0055 71.1507L93.1897 70.1744ZM93.4131 70.073L94.0399 71.4694L95.4328 70.837L94.8106 69.4423L93.4131 70.073ZM92.3125 47.4993L93.6679 48.2058L92.3125 47.4993ZM108.036 36.4226L108.391 37.9128L109.887 37.5491L109.523 36.0528L108.036 36.4226ZM123.973 103.366L123.574 104.848L125.078 105.249L125.458 103.734L123.973 103.366ZM104.441 98.1606L102.956 97.7933L102.59 99.256L104.042 99.6427L104.441 98.1606ZM124.222 102.374L125.706 102.741L126.072 101.278L124.621 100.892L124.222 102.374ZM104.689 97.168L105.088 95.6858L103.584 95.285L103.205 96.8007L104.689 97.168ZM92.7729 47.7154C95.6083 42.2843 101.176 38.6049 108.147 36.9107L107.437 33.9301C99.8839 35.7658 93.4247 39.8615 90.0621 46.3024L92.7729 47.7154ZM93.7324 69.5044C89.7249 60.3234 89.9818 53.0618 92.7729 47.7154L90.0621 46.3024C86.7217 52.7009 86.6641 60.9762 90.9274 70.7432L93.7324 69.5044ZM91.5599 80.5245C90.1303 77.6793 90.5245 73.9327 93.3772 71.2376L91.2825 69.01C87.414 72.6646 86.804 77.8904 88.825 81.9128L91.5599 80.5245ZM101.138 84.4222C96.2972 85.4192 92.9858 83.3625 91.5599 80.5245L88.825 81.9128C90.9124 86.0674 95.6435 88.6826 101.742 87.4264L101.138 84.4222ZM105.192 97.0354L102.941 85.621L99.9387 86.2275L102.19 97.6419L105.192 97.0354ZM104.396 95.6332L103.395 95.8353L103.988 98.8419L104.988 98.6398L104.396 95.6332ZM100.741 85.0165L103.191 97.4397L106.193 96.8332L103.743 84.41L100.741 85.0165ZM102.043 86.3165L102.539 86.2165L101.946 83.2099L101.45 83.3099L102.043 86.3165ZM100.253 85.1529L100.255 85.1605L103.239 84.466L103.237 84.4584L100.253 85.1529ZM101.825 86.3603C101.916 86.3397 102.008 86.3183 102.1 86.2959L101.39 83.3153C101.315 83.3335 101.241 83.351 101.167 83.3676L101.825 86.3603ZM101.538 86.4187L101.792 86.3672L101.199 83.3606L100.945 83.4121L101.538 86.4187ZM102.743 84.6152L102.742 84.6119L99.7398 85.2188L99.7404 85.2221L102.743 84.6152ZM89.7307 81.4397C91.5942 85.1486 95.8534 87.5914 101.544 86.4208L100.94 83.4164C96.5126 84.3272 93.6699 82.4483 92.4656 80.0514L89.7307 81.4397ZM92.4651 69.3171C88.5009 72.659 87.8253 77.6475 89.7307 81.4397L92.4656 80.0514C91.1823 77.4972 91.5808 74.0626 94.4299 71.6609L92.4651 69.3171ZM92.0055 71.1507L92.2633 71.4653L94.6317 69.5127L94.3739 69.1982L92.0055 71.1507ZM92.7862 68.6766L92.5628 68.778L93.8165 71.5709L94.0399 71.4694L92.7862 68.6766ZM90.9571 46.7928C87.7597 52.9174 87.6749 60.9742 92.0155 70.7037L94.8106 69.4423C90.7302 60.2963 91.0273 53.2639 93.6679 48.2058L90.9571 46.7928ZM107.681 34.9323C100.314 36.7228 94.1459 40.6847 90.9571 46.7928L93.6679 48.2058C96.3298 43.107 101.607 39.5617 108.391 37.9128L107.681 34.9323ZM106.305 35.7901L106.549 36.7923L109.523 36.0528L109.278 35.0507L106.305 35.7901ZM124.372 101.884L104.84 96.6784L104.042 99.6427L123.574 104.848L124.372 101.884ZM122.737 102.006L122.489 102.999L125.458 103.734L125.706 102.741L122.737 102.006ZM104.29 98.6501L123.823 103.856L124.621 100.892L105.088 95.6858L104.29 98.6501ZM105.925 98.5278L106.173 97.5352L103.205 96.8007L102.956 97.7933L105.925 98.5278Z" fill="white"></path> <path fill-rule="evenodd" clip-rule="evenodd" d="M109.948 34.9001C117.21 33.1351 124.316 33.8338 129.748 37.6962C135.123 41.5168 138.761 48.362 139.344 58.6981C143.767 59.9811 146.235 63.7457 146.244 67.5965C146.254 71.5174 143.725 75.4455 138.347 76.9556L141.48 88.1493L140.498 88.4292L137.085 76.2399L137.572 76.1014L137.571 76.0995L137.621 76.0872L138.068 75.96L138.07 75.9688C143.044 74.5711 145.233 71.015 145.225 67.5914C145.216 64.0328 142.841 60.5291 138.514 59.5369L138.601 59.1406L138.357 59.1529C137.857 48.8133 134.29 42.1822 129.172 38.5441C124.044 34.8982 117.257 34.1852 110.182 35.9049L109.948 34.9001ZM141.184 89.2321L126.133 102.844L125.465 102.074L140.516 88.4623L141.184 89.2321Z" fill="white"></path> <path d="M129.748 37.6962L128.86 38.9482L129.748 37.6962ZM109.948 34.9001L108.458 35.254L108.112 33.7697L109.593 33.4098L109.948 34.9001ZM139.344 58.6981L138.913 60.1713L137.878 59.8708L137.817 58.791L139.344 58.6981ZM146.244 67.5965L144.714 67.6067L146.244 67.5965ZM138.347 76.9556L136.873 77.3754L136.458 75.8948L137.939 75.479L138.347 76.9556ZM141.48 88.1493L142.954 87.7295L143.367 89.2045L141.893 89.6243L141.48 88.1493ZM140.498 88.4292L140.911 89.9042L139.437 90.3241L139.024 88.8491L140.498 88.4292ZM137.085 76.2399L135.612 76.6598L135.199 75.1848L136.673 74.7649L137.085 76.2399ZM137.572 76.1014L139.057 75.7249L139.416 77.1686L137.985 77.5764L137.572 76.1014ZM137.571 76.0995L136.086 76.476L135.714 74.9772L137.214 74.6098L137.571 76.0995ZM137.621 76.0872L138.034 77.5622L138.007 77.5701L137.979 77.5769L137.621 76.0872ZM138.068 75.96L137.655 74.485L139.129 74.0652L139.541 75.5402L138.068 75.96ZM138.07 75.9688L138.478 77.4453L137.008 77.8584L136.597 76.3887L138.07 75.9688ZM145.225 67.5914L143.694 67.6016L145.225 67.5914ZM138.514 59.5369L138.167 61.032L136.693 60.694L137.02 59.2117L138.514 59.5369ZM138.601 59.1406L138.531 57.609L140.528 57.5084L140.096 59.4659L138.601 59.1406ZM138.357 59.1529L138.428 60.6846L136.902 60.7614L136.828 59.2334L138.357 59.1529ZM129.172 38.5441L130.061 37.2921L130.061 37.2921L129.172 38.5441ZM110.182 35.9049L110.537 37.3952L109.04 37.7589L108.691 36.2588L110.182 35.9049ZM126.133 102.844L127.156 103.98L125.997 105.028L124.977 103.853L126.133 102.844ZM141.184 89.2321L142.341 88.223L143.325 89.3574L142.207 90.3687L141.184 89.2321ZM125.465 102.074L124.309 103.083L123.324 101.949L124.442 100.937L125.465 102.074ZM140.516 88.4623L139.493 87.3257L140.652 86.2776L141.672 87.4532L140.516 88.4623ZM128.86 38.9482C123.889 35.4144 117.274 34.6961 110.303 36.3904L109.593 33.4098C117.146 31.5741 124.742 32.2533 130.637 36.4442L128.86 38.9482ZM137.817 58.791C137.251 48.7747 133.752 42.4266 128.86 38.9482L130.637 36.4442C136.493 40.6071 140.27 47.9494 140.872 58.6051L137.817 58.791ZM144.714 67.6067C144.706 64.4159 142.668 61.2605 138.913 60.1713L139.776 57.2248C144.867 58.7018 147.763 63.0754 147.775 67.5863L144.714 67.6067ZM137.939 75.479C142.699 74.1426 144.722 70.7893 144.714 67.6067L147.775 67.5863C147.786 72.2454 144.751 76.7484 138.754 78.4322L137.939 75.479ZM140.007 88.5692L136.873 77.3754L139.82 76.5357L142.954 87.7295L140.007 88.5692ZM140.085 86.9542L141.067 86.6744L141.893 89.6243L140.911 89.9042L140.085 86.9542ZM138.559 75.8201L141.971 88.0094L139.024 88.8491L135.612 76.6598L138.559 75.8201ZM137.985 77.5764L137.498 77.7149L136.673 74.7649L137.159 74.6264L137.985 77.5764ZM139.056 75.723L139.057 75.7249L136.087 76.4779L136.086 76.476L139.056 75.723ZM137.979 77.5769L137.929 77.5892L137.214 74.6098L137.264 74.5975L137.979 77.5769ZM138.481 77.435L138.034 77.5622L137.209 74.6122L137.655 74.485L138.481 77.435ZM136.597 76.3887L136.594 76.3799L139.541 75.5402L139.544 75.549L136.597 76.3887ZM146.755 67.5812C146.766 71.7405 144.073 75.8731 138.478 77.4453L137.663 74.4924C142.016 73.2691 143.701 70.2896 143.694 67.6016L146.755 67.5812ZM138.861 58.0419C143.896 59.1964 146.744 63.3285 146.755 67.5812L143.694 67.6016C143.687 64.7372 141.785 61.8617 138.167 61.032L138.861 58.0419ZM140.096 59.4659L140.008 59.8622L137.02 59.2117L137.107 58.8153L140.096 59.4659ZM138.287 57.6213L138.531 57.609L138.672 60.6723L138.428 60.6846L138.287 57.6213ZM130.061 37.2921C135.667 41.2772 139.37 48.4132 139.886 59.0724L136.828 59.2334C136.344 49.2135 132.913 43.0872 128.283 39.7961L130.061 37.2921ZM109.827 34.4146C117.194 32.6241 124.471 33.3178 130.061 37.2921L128.283 39.7961C123.617 36.4785 117.321 35.7463 110.537 37.3952L109.827 34.4146ZM111.439 34.5462L111.672 35.551L108.691 36.2588L108.458 35.254L111.439 34.5462ZM125.11 101.707L140.161 88.0955L142.207 90.3687L127.156 103.98L125.11 101.707ZM126.622 101.065L127.29 101.835L124.977 103.853L124.309 103.083L126.622 101.065ZM141.539 89.5989L126.488 103.21L124.442 100.937L139.493 87.3257L141.539 89.5989ZM140.028 90.2413L139.359 89.4714L141.672 87.4532L142.341 88.223L140.028 90.2413Z" fill="white"></path> <path d="M125.299 104.085L126.023 104.985L125.054 105.214L125.299 104.085Z" fill="white"></path> <path d="M109.251 69.0672C109.689 70.9064 108.583 72.7076 106.845 73.1302C105.106 73.5527 103.31 72.4569 102.872 70.6177C102.434 68.7786 103.54 66.9773 105.278 66.5548C107.017 66.1322 108.813 67.2281 109.251 69.0672Z" fill="white" stroke="white" stroke-width="2.34903"></path> <path d="M106.893 61.2588C107.022 61.8026 106.697 62.3481 106.165 62.4773C105.634 62.6065 105.098 62.2704 104.968 61.7267C104.839 61.183 105.165 60.6375 105.696 60.5083C106.228 60.3791 106.763 60.7151 106.893 61.2588Z" fill="white"></path> <path d="M110.339 62.0323C110.469 62.576 110.143 63.1215 109.611 63.2507C109.08 63.3799 108.544 63.0439 108.414 62.5001C108.285 61.9564 108.611 61.4109 109.142 61.2817C109.674 61.1525 110.21 61.4886 110.339 62.0323Z" fill="white"></path> <path d="M113.448 64.4034C113.578 64.9471 113.252 65.4926 112.72 65.6218C112.189 65.751 111.653 65.4149 111.523 64.8712C111.394 64.3275 111.72 63.782 112.251 63.6528C112.783 63.5236 113.319 63.8597 113.448 64.4034Z" fill="white"></path> <path d="M115.231 67.6143C115.36 68.158 115.034 68.7035 114.503 68.8327C113.971 68.9619 113.436 68.6259 113.306 68.0822C113.177 67.5384 113.502 66.9929 114.034 66.8637C114.565 66.7345 115.101 67.0706 115.231 67.6143Z" fill="white"></path> <path d="M115.206 71.7823C115.336 72.326 115.01 72.8715 114.479 73.0007C113.947 73.1299 113.411 72.7939 113.282 72.2501C113.152 71.7064 113.478 71.1609 114.01 71.0317C114.541 70.9025 115.077 71.2386 115.206 71.7823Z" fill="white"></path> <path d="M113.387 74.8253C113.516 75.369 113.19 75.9145 112.659 76.0437C112.127 76.1729 111.591 75.8368 111.462 75.2931C111.332 74.7494 111.658 74.2039 112.19 74.0747C112.721 73.9455 113.257 74.2815 113.387 74.8253Z" fill="white"></path> <path d="M110.482 77.0909C110.612 77.6346 110.286 78.1801 109.754 78.3093C109.223 78.4385 108.687 78.1024 108.557 77.5587C108.428 77.015 108.754 76.4695 109.285 76.3403C109.817 76.2111 110.353 76.5472 110.482 77.0909Z" fill="white"></path> <path d="M106.78 78.0323C106.91 78.576 106.584 79.1215 106.052 79.2507C105.521 79.3799 104.985 79.0439 104.856 78.5001C104.726 77.9564 105.052 77.4109 105.584 77.2817C106.115 77.1525 106.651 77.4886 106.78 78.0323Z" fill="white"></path> <path d="M103.267 77.0557C103.397 77.5994 103.071 78.145 102.54 78.2741C102.008 78.4033 101.472 78.0673 101.343 77.5236C101.213 76.9798 101.539 76.4343 102.071 76.3051C102.602 76.1759 103.138 76.512 103.267 77.0557Z" fill="white"></path> <path d="M100.054 74.4268C100.184 74.9705 99.8577 75.516 99.3262 75.6452C98.7947 75.7744 98.2588 75.4384 98.1293 74.8947C97.9998 74.3509 98.3257 73.8054 98.8572 73.6762C99.3887 73.547 99.9246 73.8831 100.054 74.4268Z" fill="white"></path> <path d="M98.6354 70.6026C98.7649 71.1463 98.439 71.6918 97.9075 71.821C97.3759 71.9502 96.8401 71.6142 96.7106 71.0704C96.5811 70.5267 96.907 69.9812 97.4385 69.852C97.97 69.7228 98.5059 70.0589 98.6354 70.6026Z" fill="white"></path> <path d="M98.6593 66.4307C98.7888 66.9744 98.4629 67.52 97.9314 67.6491C97.3999 67.7783 96.864 67.4423 96.7345 66.8986C96.605 66.3548 96.9309 65.8093 97.4624 65.6801C97.9939 65.5509 98.5298 65.887 98.6593 66.4307Z" fill="white"></path> <path d="M100.842 63.794C100.972 64.3377 100.646 64.8832 100.115 65.0124C99.583 65.1416 99.0471 64.8056 98.9176 64.2618C98.7881 63.7181 99.114 63.1726 99.6455 63.0434C100.177 62.9142 100.713 63.2503 100.842 63.794Z" fill="white"></path> <path d="M103.731 62.0713C103.86 62.6151 103.534 63.1606 103.003 63.2898C102.471 63.419 101.936 63.0829 101.806 62.5392C101.677 61.9955 102.002 61.45 102.534 61.3208C103.065 61.1916 103.601 61.5276 103.731 62.0713Z" fill="white"></path> <path d="M130.424 63.9188C130.862 65.7579 129.756 67.5592 128.018 67.9818C126.279 68.4043 124.483 67.3084 124.045 65.4693C123.607 63.6302 124.713 61.8289 126.452 61.4063C128.19 60.9838 129.986 62.0797 130.424 63.9188Z" fill="white" stroke="white" stroke-width="2.34903"></path> <path d="M128.066 56.1104C128.196 56.6541 127.87 57.1996 127.338 57.3288C126.807 57.458 126.271 57.122 126.141 56.5783C126.012 56.0345 126.338 55.489 126.869 55.3598C127.401 55.2306 127.937 55.5667 128.066 56.1104Z" fill="white"></path> <path d="M131.512 56.8838C131.642 57.4276 131.316 57.9731 130.784 58.1023C130.253 58.2315 129.717 57.8954 129.587 57.3517C129.458 56.808 129.784 56.2625 130.315 56.1333C130.847 56.0041 131.383 56.3401 131.512 56.8838Z" fill="white"></path> <path d="M134.621 59.2549C134.751 59.7987 134.425 60.3442 133.893 60.4734C133.362 60.6026 132.826 60.2665 132.696 59.7228C132.567 59.1791 132.893 58.6336 133.424 58.5044C133.956 58.3752 134.492 58.7112 134.621 59.2549Z" fill="white"></path> <path d="M136.404 62.4659C136.533 63.0096 136.208 63.5551 135.676 63.6843C135.145 63.8135 134.609 63.4774 134.479 62.9337C134.35 62.39 134.676 61.8445 135.207 61.7153C135.739 61.5861 136.274 61.9222 136.404 62.4659Z" fill="white"></path> <path d="M136.38 66.6338C136.509 67.1776 136.183 67.7231 135.652 67.8523C135.12 67.9815 134.584 67.6454 134.455 67.1017C134.325 66.558 134.651 66.0125 135.183 65.8833C135.714 65.7541 136.25 66.0901 136.38 66.6338Z" fill="white"></path> <path d="M134.56 69.6768C134.689 70.2205 134.363 70.766 133.832 70.8952C133.3 71.0244 132.764 70.6884 132.635 70.1447C132.505 69.6009 132.831 69.0554 133.363 68.9262C133.894 68.797 134.43 69.1331 134.56 69.6768Z" fill="white"></path> <path d="M131.655 71.9424C131.785 72.4862 131.459 73.0317 130.927 73.1609C130.396 73.2901 129.86 72.954 129.731 72.4103C129.601 71.8666 129.927 71.3211 130.459 71.1919C130.99 71.0627 131.526 71.3987 131.655 71.9424Z" fill="white"></path> <path d="M127.954 72.8838C128.083 73.4276 127.757 73.9731 127.226 74.1023C126.694 74.2315 126.158 73.8954 126.029 73.3517C125.899 72.808 126.225 72.2625 126.757 72.1333C127.288 72.0041 127.824 72.3401 127.954 72.8838Z" fill="white"></path> <path d="M124.441 71.9073C124.57 72.451 124.244 72.9965 123.713 73.1257C123.181 73.2549 122.645 72.9189 122.516 72.3751C122.386 71.8314 122.712 71.2859 123.244 71.1567C123.775 71.0275 124.311 71.3636 124.441 71.9073Z" fill="white"></path> <path d="M121.227 69.2784C121.357 69.8221 121.031 70.3676 120.5 70.4968C119.968 70.626 119.432 70.2899 119.303 69.7462C119.173 69.2025 119.499 68.657 120.031 68.5278C120.562 68.3986 121.098 68.7347 121.227 69.2784Z" fill="white"></path> <path d="M119.808 65.4542C119.938 65.9979 119.612 66.5434 119.081 66.6726C118.549 66.8018 118.013 66.4657 117.884 65.922C117.754 65.3783 118.08 64.8328 118.612 64.7036C119.143 64.5744 119.679 64.9104 119.808 65.4542Z" fill="white"></path> <path d="M119.832 61.2823C119.962 61.826 119.636 62.3715 119.104 62.5007C118.573 62.6299 118.037 62.2939 117.907 61.7501C117.778 61.2064 118.104 60.6609 118.635 60.5317C119.167 60.4025 119.703 60.7386 119.832 61.2823Z" fill="white"></path> <path d="M122.016 58.6456C122.145 59.1893 121.819 59.7348 121.288 59.864C120.756 59.9932 120.22 59.6571 120.091 59.1134C119.961 58.5697 120.287 58.0242 120.819 57.895C121.35 57.7658 121.886 58.1018 122.016 58.6456Z" fill="white"></path> <path d="M124.904 56.9229C125.033 57.4666 124.708 58.0121 124.176 58.1413C123.645 58.2705 123.109 57.9345 122.979 57.3908C122.85 56.847 123.176 56.3015 123.707 56.1723C124.239 56.0431 124.774 56.3792 124.904 56.9229Z" fill="white"></path> <path d="M119.427 79.9959C119.43 79.9838 119.434 79.9777 119.435 79.9753C119.437 79.9728 119.438 79.9709 119.44 79.9691C119.445 79.965 119.454 79.9585 119.47 79.9548C119.485 79.9511 119.496 79.9525 119.502 79.9541C119.505 79.9548 119.507 79.9557 119.509 79.9573C119.512 79.9587 119.517 79.9626 119.526 79.9719L124.798 85.739C124.806 85.7475 124.809 85.7533 124.811 85.7559C124.812 85.7586 124.813 85.7611 124.814 85.7638C124.815 85.7699 124.815 85.7812 124.811 85.7953C124.807 85.8094 124.8 85.8184 124.795 85.8228C124.793 85.8248 124.791 85.8263 124.789 85.8279C124.786 85.8293 124.78 85.8322 124.769 85.835L117.398 87.6265C117.387 87.6293 117.38 87.6293 117.377 87.6293C117.374 87.6292 117.372 87.6287 117.369 87.6279C117.363 87.6261 117.353 87.6211 117.343 87.6105C117.333 87.5999 117.328 87.5897 117.326 87.5837C117.326 87.581 117.325 87.5784 117.325 87.5753C117.325 87.5724 117.325 87.5658 117.329 87.5545L119.427 79.9959Z" stroke="white" stroke-width="2.34903"></path> <path d="M90.4781 45.9309L86.6415 26.7098C86.5199 26.101 87.0914 25.5825 87.6855 25.7624L98.7677 29.1179C99.2168 29.2539 99.6884 28.9868 99.8028 28.5317L103.905 12.2141C104.077 11.532 104.97 11.3665 105.374 11.9419L114.696 25.2029C114.993 25.6252 115.601 25.6725 115.96 25.3012L125.303 15.6239C125.771 15.1392 126.592 15.3926 126.705 16.0568L130.508 38.4088" stroke="white" stroke-width="3.28713"></path> <path d="M92.0758 45.5435C92.2883 46.426 91.745 47.3136 90.8625 47.5261C89.98 47.7385 89.0924 47.1953 88.88 46.3128C88.6676 45.4303 89.2108 44.5426 90.0933 44.3302C90.9758 44.1178 91.8634 44.661 92.0758 45.5435Z" fill="white"></path> <path d="M11.9635 140.008V149.161H24.7083V144.344H29.0003V153.541H3.20421V149.249H7.58385V123.54H3.20421V119.248H28.8689V128.884H24.5769V123.628H11.9635V135.628H24.1389V140.008H11.9635ZM40.7785 123.54V149.161H53.9174V144.344H58.2095V153.541H32.0192V149.249H36.3988V123.54H32.0192V119.248H44.2822V123.54H40.7785ZM101.981 148.986C100.93 150.446 99.2513 151.599 96.9447 152.446C94.6673 153.322 92.1563 153.76 89.4117 153.76C86.1416 153.76 83.1634 153.059 80.4772 151.658C77.8202 150.227 75.7326 148.242 74.2143 145.701C72.7252 143.161 71.9807 140.285 71.9807 137.073C71.9807 133.657 72.7106 130.548 74.1705 127.745C75.6596 124.913 77.7326 122.708 80.3896 121.132C82.9882 119.613 85.8788 118.854 89.0613 118.854C90.492 118.854 91.8643 119.044 93.1782 119.423C94.5213 119.803 95.7184 120.343 96.7695 121.044V119.248H101.149V128.884H97.2513C96.7841 127.044 95.8498 125.643 94.4483 124.679C93.0468 123.716 91.2365 123.234 89.0175 123.234C86.6525 123.234 84.5065 123.774 82.5794 124.854C80.6816 125.905 79.1925 127.409 78.1122 129.365C76.9735 131.322 76.4041 133.584 76.4041 136.154C76.4041 138.723 76.9443 141.001 78.0246 142.986C79.1049 144.971 80.6378 146.533 82.6232 147.672C84.5503 148.811 86.8277 149.38 89.4555 149.38C93.5432 149.38 96.8425 148.169 99.3535 145.745L101.981 148.986ZM127.796 123.54V119.248H140.059V123.54H136.555V149.249H140.059V153.541H127.796V149.249H132.175V140.008H112.642V149.249H116.146V153.541H103.883V149.249H108.263V123.54H103.883V119.248H116.146V123.54H112.642V135.628H132.175V123.54H127.796ZM153.045 123.54V119.248H162.987L175.732 149.249H180.243V153.541H167.498V149.249H170.958L168.637 143.687H154.14L151.775 149.249H155.585V153.541H141.833V149.249H147.089L158.038 123.54H153.045ZM166.841 139.307L161.366 126.606L155.98 139.307H166.841ZM197.02 119.248C201.253 119.248 204.48 120.139 206.699 121.92C208.918 123.701 210.027 126.314 210.027 129.759C210.027 132.154 209.502 134.241 208.45 136.022C207.399 137.774 205.896 139.132 203.939 140.095C201.983 141.03 199.677 141.497 197.02 141.497H190.056V149.249H194.436V153.541H182.173V149.249H185.676V123.54H182.173V119.248H197.02ZM197.063 137.117C199.837 137.117 201.954 136.49 203.414 135.234C204.874 133.949 205.604 132.124 205.604 129.759C205.604 127.628 204.918 126.081 203.545 125.117C202.202 124.124 200.042 123.628 197.063 123.628H190.056V137.117H197.063ZM227.91 153.935C224.669 153.935 221.749 153.191 219.151 151.701C216.552 150.183 214.494 148.052 212.975 145.307C211.574 142.621 210.873 139.657 210.873 136.417C210.873 133.234 211.589 130.3 213.019 127.613C214.479 124.927 216.508 122.781 219.107 121.175C221.764 119.628 224.698 118.854 227.91 118.854C231.18 118.854 234.158 119.628 236.845 121.175C239.531 122.694 241.648 124.825 243.195 127.57C244.655 130.314 245.385 133.263 245.385 136.417C245.385 139.628 244.626 142.577 243.107 145.263C241.618 147.95 239.545 150.081 236.888 151.658C234.202 153.176 231.209 153.935 227.91 153.935ZM227.91 149.555C230.333 149.555 232.523 149.001 234.48 147.891C236.436 146.782 238.012 145.22 239.21 143.205V143.161C240.377 141.293 240.961 139.044 240.961 136.417C240.961 134.022 240.392 131.832 239.253 129.847C238.144 127.832 236.567 126.212 234.523 124.986C232.45 123.818 230.246 123.234 227.91 123.234C225.545 123.234 223.399 123.803 221.472 124.942C219.574 126.081 218.085 127.686 217.005 129.759C215.866 131.774 215.297 133.993 215.297 136.417C215.297 138.957 215.822 141.22 216.873 143.205C217.924 145.161 219.443 146.709 221.428 147.847H221.472C223.282 148.986 225.428 149.555 227.91 149.555Z" fill="white"></path> <path d="M68.5049 176.738H71.2397C71.1633 177.034 71.0489 177.314 70.8962 177.577C70.7436 177.84 70.5528 178.073 70.3238 178.277C70.0949 178.48 69.8235 178.637 69.5098 178.747C69.196 178.858 68.8399 178.913 68.4413 178.913C67.8562 178.913 67.3305 178.777 66.8641 178.506C66.3977 178.234 66.0246 177.857 65.7447 177.374C65.4734 176.882 65.3377 176.314 65.3377 175.669C65.3377 175.016 65.4776 174.452 65.7575 173.977C66.0373 173.494 66.4104 173.121 66.8768 172.858C67.3432 172.587 67.8647 172.451 68.4413 172.451C69.0603 172.451 69.5861 172.578 70.0186 172.833C70.4595 173.087 70.803 173.426 71.0489 173.85L72.27 173.036C72.0071 172.621 71.6849 172.269 71.3033 171.98C70.9302 171.684 70.5062 171.459 70.0313 171.306C69.5564 171.145 69.0264 171.065 68.4413 171.065C67.7714 171.065 67.1481 171.175 66.5715 171.395C66.0034 171.616 65.5073 171.934 65.0833 172.349C64.6678 172.756 64.3413 173.244 64.1039 173.812C63.8749 174.372 63.7605 174.991 63.7605 175.669C63.7605 176.348 63.8749 176.971 64.1039 177.539C64.3328 178.107 64.6551 178.599 65.0706 179.014C65.4946 179.43 65.9906 179.752 66.5588 179.981C67.1269 180.202 67.746 180.312 68.4159 180.312C69.1197 180.312 69.7472 180.185 70.2984 179.93C70.8581 179.667 71.3245 179.311 71.6976 178.862C72.0707 178.412 72.3505 177.899 72.5371 177.323C72.7236 176.738 72.8084 176.119 72.7915 175.466H68.5049V176.738ZM90.2177 175.873L93.0542 180.121H94.8605L91.8459 175.873H90.2177ZM88.3861 171.217V180.121H89.887V171.217H88.3861ZM89.2765 172.515H91.07C91.4092 172.515 91.706 172.574 91.9604 172.693C92.2232 172.811 92.4267 172.981 92.5709 173.202C92.7151 173.422 92.7871 173.693 92.7871 174.016C92.7871 174.329 92.7151 174.601 92.5709 174.83C92.4267 175.05 92.2232 175.22 91.9604 175.338C91.706 175.457 91.4092 175.517 91.07 175.517H89.2765V176.75H91.1336C91.778 176.75 92.3377 176.636 92.8126 176.407C93.2959 176.178 93.669 175.856 93.9319 175.44C94.1948 175.025 94.3262 174.537 94.3262 173.977C94.3262 173.418 94.1948 172.934 93.9319 172.527C93.669 172.112 93.2959 171.79 92.8126 171.561C92.3377 171.332 91.778 171.217 91.1336 171.217H89.2765V172.515ZM139.343 171.217V177.196L132.844 170.772V180.121H134.319V174.143L140.819 180.566V171.217H139.343ZM156.849 171.217V180.121H158.375V171.217H156.849ZM159.723 180.121C160.631 180.121 161.428 179.939 162.115 179.574C162.802 179.201 163.336 178.684 163.717 178.022C164.107 177.352 164.302 176.568 164.302 175.669C164.302 174.77 164.107 173.99 163.717 173.329C163.336 172.659 162.802 172.142 162.115 171.777C161.428 171.404 160.631 171.217 159.723 171.217H157.777V172.629H159.685C160.126 172.629 160.533 172.693 160.906 172.82C161.279 172.947 161.602 173.138 161.873 173.392C162.153 173.647 162.369 173.965 162.522 174.346C162.683 174.728 162.763 175.169 162.763 175.669C162.763 176.169 162.683 176.61 162.522 176.992C162.369 177.374 162.153 177.692 161.873 177.946C161.602 178.2 161.279 178.391 160.906 178.518C160.533 178.646 160.126 178.709 159.685 178.709H157.777V180.121H159.723ZM180.751 180.121H185.241V178.798H180.751V180.121ZM180.751 172.54H185.241V171.217H180.751V172.54ZM180.751 176H184.987V174.702H180.751V176ZM179.823 171.217V180.121H181.298V171.217H179.823Z" fill="white"></path> <path d="M113.406 170.176L117.926 179.626H116.282L113.406 173.211V170.176Z" fill="white"></path> <path d="M113.406 170.176L108.886 179.626H110.53L113.406 173.211V170.176Z" fill="white"></path> <rect x="53.4158" y="162.367" width="141.347" height="0.410891" fill="url(#paint0_linear_1812_383)"></rect> <defs> <linearGradient id="paint0_linear_1812_383" x1="194.762" y1="162.778" x2="53.4158" y2="162.778" gradientUnits="userSpaceOnUse"> <stop stop-color="white" stop-opacity="0"></stop> <stop offset="0.494792" stop-color="white"></stop> <stop offset="1" stop-color="white" stop-opacity="0"></stop> </linearGradient> </defs> </svg> 