<svg width="642" height="406" viewBox="0 0 642 406" fill="none" xmlns="http://www.w3.org/2000/svg">
<path fill-rule="evenodd" clip-rule="evenodd" d="M277.764 92.2214C259.052 96.7695 243.556 106.787 235.571 122.083C227.67 137.217 227.265 157.237 237.925 181.653C229.262 189.835 227.968 201.396 232.414 210.246C236.941 219.255 247.303 225.275 261.399 222.371L267.198 251.78L269.778 251.259L263.465 219.246L262.187 219.504L262.183 219.489C262.03 219.526 261.877 219.562 261.724 219.597L260.885 219.767L260.888 219.78C247.851 222.462 238.701 216.894 234.748 209.027C230.639 200.85 232.023 189.997 240.802 182.597L240.132 181.78L240.713 181.516C229.863 157.196 230.355 137.755 237.877 123.347C245.415 108.908 260.162 99.2352 278.394 94.8038L277.764 92.2214ZM269.13 253.89L319.463 267.305L320.103 264.747L269.77 251.333L269.13 253.89Z" fill="#FFEE5F"/>
<path d="M235.571 122.083L232.078 120.263L232.078 120.263L235.571 122.083ZM277.764 92.2214L281.596 91.2686L280.665 87.4537L276.85 88.3811L277.764 92.2214ZM237.925 181.653L240.623 184.524L242.652 182.608L241.538 180.057L237.925 181.653ZM232.414 210.246L228.89 212.034L228.89 212.034L232.414 210.246ZM261.399 222.371L265.268 221.59L264.501 217.701L260.62 218.5L261.399 222.371ZM267.198 251.78L263.33 252.561L264.094 256.435L267.962 255.654L267.198 251.78ZM269.778 251.259L270.542 255.133L274.41 254.351L273.647 250.477L269.778 251.259ZM263.465 219.246L267.333 218.464L266.569 214.591L262.701 215.372L263.465 219.246ZM262.187 219.504L258.342 220.399L259.194 224.137L262.951 223.378L262.187 219.504ZM262.183 219.489L266.028 218.594L265.143 214.707L261.269 215.649L262.183 219.489ZM261.724 219.597L262.488 223.471L262.54 223.461L262.592 223.449L261.724 219.597ZM260.885 219.767L260.121 215.893L256.253 216.675L257.016 220.548L260.885 219.767ZM260.888 219.78L261.666 223.651L265.518 222.858L264.757 218.998L260.888 219.78ZM234.748 209.027L238.272 207.238L234.748 209.027ZM240.802 182.597L243.333 185.617L246.324 183.095L243.853 180.081L240.802 182.597ZM240.132 181.78L238.517 178.182L233.818 180.315L237.081 184.296L240.132 181.78ZM240.713 181.516L242.328 185.115L245.918 183.485L244.314 179.891L240.713 181.516ZM237.877 123.347L234.384 121.526L237.877 123.347ZM278.394 94.8038L279.309 98.6441L283.165 97.7068L282.225 93.8511L278.394 94.8038ZM319.463 267.305L318.435 271.124L322.311 272.157L323.288 268.251L319.463 267.305ZM269.13 253.89L265.305 252.944L264.362 256.713L268.102 257.71L269.13 253.89ZM320.103 264.747L323.928 265.693L324.871 261.924L321.131 260.928L320.103 264.747ZM269.77 251.333L270.798 247.513L266.922 246.48L265.945 250.386L269.77 251.333ZM239.063 123.904C246.37 109.909 260.717 100.427 278.679 96.0616L276.85 88.3811C257.387 93.1116 240.743 103.665 232.078 120.263L239.063 123.904ZM241.538 180.057C231.209 156.396 231.871 137.682 239.063 123.904L232.078 120.263C223.47 136.752 223.322 158.079 234.311 183.25L241.538 180.057ZM235.938 208.457C232.254 201.125 233.27 191.469 240.623 184.524L235.226 178.783C225.255 188.2 223.682 201.668 228.89 212.034L235.938 208.457ZM260.62 218.5C248.146 221.07 239.612 215.77 235.938 208.457L228.89 212.034C234.269 222.741 246.461 229.48 262.178 226.242L260.62 218.5ZM271.067 250.998L265.268 221.59L257.53 223.153L263.33 252.561L271.067 250.998ZM269.014 247.385L266.435 247.906L267.962 255.654L270.542 255.133L269.014 247.385ZM259.596 220.027L265.909 252.04L273.647 250.477L267.333 218.464L259.596 220.027ZM262.951 223.378L264.228 223.12L262.701 215.372L261.423 215.63L262.951 223.378ZM258.339 220.383L258.342 220.399L266.032 218.609L266.028 218.594L258.339 220.383ZM262.592 223.449C262.76 223.41 262.929 223.37 263.098 223.329L261.269 215.649C261.131 215.682 260.994 215.714 260.857 215.746L262.592 223.449ZM261.649 223.641L262.488 223.471L260.96 215.724L260.121 215.893L261.649 223.641ZM264.757 218.998L264.754 218.986L257.016 220.548L257.019 220.561L264.757 218.998ZM231.224 210.815C236.026 220.373 247.002 226.668 261.666 223.651L260.11 215.909C248.701 218.256 241.375 213.415 238.272 207.238L231.224 210.815ZM238.27 179.577C228.055 188.189 226.314 201.043 231.224 210.815L238.272 207.238C234.965 200.656 235.992 191.806 243.333 185.617L238.27 179.577ZM237.081 184.296L237.75 185.113L243.853 180.081L243.184 179.264L237.081 184.296ZM239.098 177.918L238.517 178.182L241.747 185.378L242.328 185.115L239.098 177.918ZM234.384 121.526C226.145 137.309 225.926 158.07 237.112 183.141L244.314 179.891C233.8 156.323 234.565 138.202 241.37 125.168L234.384 121.526ZM277.479 90.9636C258.497 95.5775 242.601 105.787 234.384 121.526L241.37 125.168C248.229 112.029 261.828 102.893 279.309 98.6441L277.479 90.9636ZM273.933 93.1741L274.563 95.7566L282.225 93.8511L281.596 91.2686L273.933 93.1741ZM320.491 263.485L270.158 250.071L268.102 257.71L318.435 271.124L320.491 263.485ZM316.278 263.801L315.638 266.358L323.288 268.251L323.928 265.693L316.278 263.801ZM268.742 255.152L319.075 268.566L321.131 260.928L270.798 247.513L268.742 255.152ZM272.955 254.837L273.595 252.279L265.945 250.386L265.305 252.944L272.955 254.837Z" fill="#FFEE5F"/>
<path fill-rule="evenodd" clip-rule="evenodd" d="M283.322 90.8736C302.034 86.3255 320.345 88.126 334.345 98.0787C348.193 107.924 357.568 125.564 359.072 152.199C370.469 155.505 376.827 165.206 376.853 175.129C376.878 185.233 370.361 195.355 356.501 199.246L364.576 228.092L362.045 228.813L353.251 197.403L354.505 197.046L354.503 197.04C354.555 197.028 354.607 197.015 354.659 197.002L355.783 196.682L355.789 196.704C368.606 193.102 374.248 183.938 374.225 175.116C374.202 165.946 368.083 156.918 356.933 154.361L357.158 153.338L356.528 153.37C355.239 126.726 346.046 109.639 332.86 100.264C319.645 90.8687 302.156 89.0314 283.924 93.4628L283.322 90.8736ZM363.812 230.884L325.029 265.959L323.307 263.975L362.091 228.901L363.812 230.884Z" fill="#FFEE5F"/>
<path d="M334.345 98.0787L336.635 94.8525L336.635 94.8525L334.345 98.0787ZM283.322 90.8736L279.481 91.7856L278.592 87.9608L282.407 87.0334L283.322 90.8736ZM359.072 152.199L357.961 155.995L355.292 155.221L355.135 152.439L359.072 152.199ZM376.853 175.129L380.796 175.103L380.796 175.103L376.853 175.129ZM356.501 199.246L352.704 200.328L351.635 196.513L355.451 195.441L356.501 199.246ZM364.576 228.092L368.373 227.01L369.437 230.811L365.64 231.893L364.576 228.092ZM362.045 228.813L363.109 232.614L359.311 233.696L358.247 229.895L362.045 228.813ZM353.251 197.403L349.454 198.485L348.39 194.684L352.187 193.602L353.251 197.403ZM354.505 197.046L358.332 196.077L359.256 199.796L355.569 200.847L354.505 197.046ZM354.503 197.04L350.677 198.01L349.716 194.141L353.589 193.2L354.503 197.04ZM354.659 197.002L355.723 200.803L355.657 200.822L355.589 200.838L354.659 197.002ZM355.783 196.682L354.719 192.881L358.516 191.799L359.58 195.6L355.783 196.682ZM355.789 196.704L356.839 200.508L353.052 201.573L351.992 197.786L355.789 196.704ZM374.225 175.116L378.169 175.09L378.169 175.09L374.225 175.116ZM356.933 154.361L356.038 158.213L352.239 157.342L353.082 153.523L356.933 154.361ZM357.158 153.338L356.977 149.391L362.122 149.132L361.009 154.176L357.158 153.338ZM356.528 153.37L356.71 157.316L352.779 157.514L352.589 153.577L356.528 153.37ZM332.86 100.264L330.569 103.49L330.569 103.49L332.86 100.264ZM283.924 93.4628L284.839 97.303L280.983 98.2403L280.084 94.3748L283.924 93.4628ZM325.029 265.959L327.664 268.888L324.678 271.589L322.049 268.56L325.029 265.959ZM363.812 230.884L366.793 228.284L369.33 231.207L366.448 233.813L363.812 230.884ZM323.307 263.975L320.327 266.576L317.79 263.653L320.672 261.047L323.307 263.975ZM362.091 228.901L359.455 225.972L362.442 223.271L365.071 226.3L362.091 228.901ZM332.054 101.305C319.245 92.1988 302.199 90.348 284.237 94.7139L282.407 87.0334C301.87 82.3029 321.445 84.0532 336.635 94.8525L332.054 101.305ZM355.135 152.439C353.677 126.627 344.662 110.268 332.054 101.305L336.635 94.8525C351.725 105.58 361.459 124.5 363.009 151.96L355.135 152.439ZM372.909 175.156C372.888 166.933 367.636 158.802 357.961 155.995L360.183 148.403C373.302 152.208 380.767 163.479 380.796 175.103L372.909 175.156ZM355.451 195.441C367.717 191.998 372.93 183.357 372.909 175.156L380.796 175.103C380.827 187.109 373.004 198.713 357.55 203.051L355.451 195.441ZM360.779 229.174L352.704 200.328L360.298 198.165L368.373 227.01L360.779 229.174ZM360.981 225.012L363.512 224.291L365.64 231.893L363.109 232.614L360.981 225.012ZM357.049 196.321L365.842 227.731L358.247 229.895L349.454 198.485L357.049 196.321ZM355.569 200.847L354.315 201.204L352.187 193.602L353.441 193.245L355.569 200.847ZM358.33 196.071L358.332 196.077L350.678 198.015L350.677 198.01L358.33 196.071ZM355.589 200.838C355.533 200.853 355.476 200.867 355.418 200.88L353.589 193.2C353.635 193.189 353.682 193.177 353.728 193.166L355.589 200.838ZM356.847 200.483L355.723 200.803L353.595 193.201L354.719 192.881L356.847 200.483ZM351.992 197.786L351.986 197.764L359.58 195.6L359.586 195.622L351.992 197.786ZM378.169 175.09C378.196 185.808 371.256 196.457 356.839 200.508L354.739 192.899C365.956 189.747 370.299 182.069 370.282 175.142L378.169 175.09ZM357.827 150.509C370.802 153.484 378.141 164.131 378.169 175.09L370.282 175.142C370.263 167.761 365.363 160.351 356.038 158.213L357.827 150.509ZM361.009 154.176L360.783 155.199L353.082 153.523L353.308 152.5L361.009 154.176ZM356.346 149.423L356.977 149.391L357.34 157.285L356.71 157.316L356.346 149.423ZM335.15 97.0376C349.595 107.307 359.138 125.695 360.467 153.162L352.589 153.577C351.34 127.757 342.498 111.971 330.569 103.49L335.15 97.0376ZM283.01 89.6225C301.992 85.0086 320.745 86.7964 335.15 97.0376L330.569 103.49C318.544 94.941 302.32 93.0542 284.839 97.303L283.01 89.6225ZM287.163 89.9617L287.765 92.5508L280.084 94.3748L279.481 91.7856L287.163 89.9617ZM322.393 263.03L361.177 227.956L366.448 233.813L327.664 268.888L322.393 263.03ZM326.287 261.375L328.009 263.359L322.049 268.56L320.327 266.576L326.287 261.375ZM364.726 231.83L325.942 266.904L320.672 261.047L359.455 225.972L364.726 231.83ZM360.832 233.485L359.111 231.501L365.071 226.3L366.793 228.284L360.832 233.485Z" fill="#FFEE5F"/>
<path d="M322.878 269.162L324.743 271.482L322.246 272.07L322.878 269.162Z" fill="#FFEE5F"/>
<path d="M281.525 178.933C282.654 183.672 279.804 188.313 275.324 189.402C270.844 190.491 266.216 187.667 265.087 182.928C263.958 178.189 266.809 173.547 271.288 172.458C275.768 171.369 280.397 174.193 281.525 178.933Z" fill="#FFEE5F" stroke="#FFEE5F" stroke-width="6.05311"/>
<path d="M275.449 158.812C275.783 160.213 274.943 161.619 273.573 161.952C272.203 162.285 270.823 161.419 270.489 160.018C270.155 158.616 270.995 157.211 272.365 156.878C273.734 156.545 275.115 157.411 275.449 158.812Z" fill="#FFEE5F"/>
<path d="M284.329 160.809C284.662 162.211 283.823 163.616 282.453 163.949C281.083 164.282 279.702 163.416 279.369 162.015C279.035 160.614 279.875 159.208 281.244 158.875C282.614 158.542 283.995 159.408 284.329 160.809Z" fill="#FFEE5F"/>
<path d="M292.34 166.917C292.674 168.318 291.834 169.723 290.464 170.056C289.095 170.389 287.714 169.523 287.38 168.122C287.046 166.721 287.886 165.315 289.256 164.982C290.625 164.65 292.006 165.516 292.34 166.917Z" fill="#FFEE5F"/>
<path d="M296.934 175.186C297.268 176.587 296.428 177.993 295.058 178.326C293.688 178.659 292.307 177.793 291.974 176.392C291.64 174.991 292.48 173.585 293.85 173.252C295.219 172.919 296.6 173.785 296.934 175.186Z" fill="#FFEE5F"/>
<path d="M296.871 185.937C297.205 187.338 296.365 188.744 294.995 189.077C293.625 189.41 292.245 188.544 291.911 187.142C291.577 185.741 292.417 184.336 293.787 184.003C295.156 183.67 296.537 184.536 296.871 185.937Z" fill="#FFEE5F"/>
<path d="M292.182 193.774C292.516 195.175 291.676 196.581 290.306 196.914C288.936 197.247 287.556 196.381 287.222 194.98C286.888 193.579 287.728 192.173 289.098 191.84C290.467 191.507 291.848 192.373 292.182 193.774Z" fill="#FFEE5F"/>
<path d="M284.698 199.614C285.031 201.015 284.191 202.421 282.822 202.754C281.452 203.087 280.071 202.221 279.738 200.82C279.404 199.419 280.244 198.013 281.613 197.68C282.983 197.347 284.364 198.213 284.698 199.614Z" fill="#FFEE5F"/>
<path d="M275.159 202.031C275.492 203.432 274.653 204.838 273.283 205.171C271.913 205.504 270.532 204.638 270.199 203.237C269.865 201.836 270.705 200.43 272.074 200.097C273.444 199.764 274.825 200.63 275.159 202.031Z" fill="#FFEE5F"/>
<path d="M266.106 199.525C266.44 200.926 265.6 202.332 264.231 202.665C262.861 202.998 261.48 202.132 261.146 200.731C260.813 199.329 261.652 197.924 263.022 197.591C264.392 197.258 265.773 198.124 266.106 199.525Z" fill="#FFEE5F"/>
<path d="M257.825 192.744C258.159 194.145 257.319 195.551 255.95 195.883C254.58 196.216 253.199 195.35 252.865 193.949C252.532 192.548 253.371 191.143 254.741 190.81C256.111 190.477 257.492 191.343 257.825 192.744Z" fill="#FFEE5F"/>
<path d="M254.17 182.896C254.504 184.297 253.664 185.703 252.294 186.036C250.925 186.369 249.544 185.503 249.21 184.102C248.876 182.701 249.716 181.295 251.086 180.962C252.455 180.629 253.836 181.495 254.17 182.896Z" fill="#FFEE5F"/>
<path d="M254.232 172.145C254.566 173.547 253.726 174.952 252.356 175.285C250.987 175.618 249.606 174.752 249.272 173.351C248.938 171.95 249.778 170.544 251.148 170.211C252.517 169.878 253.898 170.744 254.232 172.145Z" fill="#FFEE5F"/>
<path d="M259.857 165.352C260.191 166.753 259.351 168.158 257.981 168.491C256.612 168.824 255.231 167.958 254.897 166.557C254.563 165.156 255.403 163.75 256.773 163.417C258.143 163.085 259.523 163.95 259.857 165.352Z" fill="#FFEE5F"/>
<path d="M267.3 160.911C267.634 162.312 266.794 163.718 265.424 164.051C264.055 164.384 262.674 163.518 262.34 162.117C262.006 160.716 262.846 159.31 264.216 158.977C265.585 158.644 266.966 159.51 267.3 160.911Z" fill="#FFEE5F"/>
<path d="M336.085 165.661C337.214 170.401 334.363 175.042 329.884 176.131C325.404 177.22 320.775 174.396 319.647 169.657C318.518 164.918 321.368 160.276 325.848 159.187C330.328 158.098 334.956 160.922 336.085 165.661Z" fill="#FFEE5F" stroke="#FFEE5F" stroke-width="6.05311"/>
<path d="M330.008 145.541C330.342 146.942 329.502 148.348 328.133 148.681C326.763 149.014 325.382 148.148 325.048 146.747C324.715 145.345 325.554 143.94 326.924 143.607C328.294 143.274 329.675 144.14 330.008 145.541Z" fill="#FFEE5F"/>
<path d="M338.888 147.538C339.222 148.94 338.382 150.345 337.012 150.678C335.643 151.011 334.262 150.145 333.928 148.744C333.594 147.343 334.434 145.937 335.804 145.604C337.174 145.271 338.554 146.137 338.888 147.538Z" fill="#FFEE5F"/>
<path d="M346.899 153.646C347.233 155.047 346.393 156.452 345.024 156.785C343.654 157.118 342.273 156.252 341.939 154.851C341.606 153.45 342.446 152.044 343.815 151.711C345.185 151.378 346.566 152.244 346.899 153.646Z" fill="#FFEE5F"/>
<path d="M351.493 161.915C351.827 163.316 350.987 164.722 349.617 165.055C348.248 165.388 346.867 164.522 346.533 163.121C346.199 161.72 347.039 160.314 348.409 159.981C349.779 159.648 351.16 160.514 351.493 161.915Z" fill="#FFEE5F"/>
<path d="M351.43 172.666C351.764 174.067 350.924 175.473 349.555 175.806C348.185 176.138 346.804 175.272 346.47 173.871C346.137 172.47 346.976 171.065 348.346 170.732C349.716 170.399 351.097 171.265 351.43 172.666Z" fill="#FFEE5F"/>
<path d="M346.741 180.503C347.075 181.904 346.235 183.31 344.866 183.643C343.496 183.976 342.115 183.11 341.781 181.709C341.448 180.308 342.287 178.902 343.657 178.569C345.027 178.236 346.408 179.102 346.741 180.503Z" fill="#FFEE5F"/>
<path d="M339.257 186.343C339.591 187.744 338.751 189.15 337.381 189.483C336.012 189.816 334.631 188.95 334.297 187.549C333.963 186.147 334.803 184.742 336.173 184.409C337.542 184.076 338.923 184.942 339.257 186.343Z" fill="#FFEE5F"/>
<path d="M329.718 188.76C330.052 190.161 329.212 191.567 327.842 191.9C326.473 192.233 325.092 191.367 324.758 189.966C324.424 188.565 325.264 187.159 326.634 186.826C328.003 186.493 329.384 187.359 329.718 188.76Z" fill="#FFEE5F"/>
<path d="M320.666 186.254C321 187.655 320.16 189.061 318.79 189.394C317.42 189.726 316.04 188.861 315.706 187.459C315.372 186.058 316.212 184.653 317.582 184.32C318.951 183.987 320.332 184.853 320.666 186.254Z" fill="#FFEE5F"/>
<path d="M312.386 179.473C312.719 180.874 311.88 182.279 310.51 182.612C309.14 182.945 307.759 182.079 307.426 180.678C307.092 179.277 307.932 177.871 309.301 177.539C310.671 177.206 312.052 178.072 312.386 179.473Z" fill="#FFEE5F"/>
<path d="M308.729 169.625C309.063 171.026 308.223 172.432 306.854 172.765C305.484 173.098 304.103 172.232 303.769 170.831C303.436 169.43 304.275 168.024 305.645 167.691C307.015 167.358 308.396 168.224 308.729 169.625Z" fill="#FFEE5F"/>
<path d="M308.791 158.874C309.124 160.275 308.285 161.681 306.915 162.014C305.545 162.347 304.164 161.481 303.831 160.08C303.497 158.679 304.337 157.273 305.706 156.94C307.076 156.607 308.457 157.473 308.791 158.874Z" fill="#FFEE5F"/>
<path d="M314.417 152.08C314.75 153.482 313.91 154.887 312.541 155.22C311.171 155.553 309.79 154.687 309.457 153.286C309.123 151.885 309.963 150.479 311.332 150.146C312.702 149.813 314.083 150.679 314.417 152.08Z" fill="#FFEE5F"/>
<path d="M321.859 147.64C322.193 149.041 321.353 150.447 319.984 150.78C318.614 151.113 317.233 150.247 316.899 148.846C316.566 147.445 317.406 146.039 318.775 145.706C320.145 145.373 321.526 146.239 321.859 147.64Z" fill="#FFEE5F"/>
<path d="M308.002 207.03L321.588 221.891C321.608 221.913 321.617 221.928 321.62 221.935C321.624 221.942 321.626 221.948 321.627 221.955C321.63 221.971 321.632 222 321.62 222.036C321.609 222.073 321.592 222.096 321.581 222.107C321.575 222.112 321.57 222.116 321.563 222.12C321.556 222.124 321.541 222.131 321.512 222.138L302.518 226.755C302.489 226.762 302.472 226.762 302.465 226.762C302.457 226.762 302.45 226.761 302.443 226.759C302.428 226.754 302.402 226.741 302.376 226.714C302.35 226.686 302.338 226.66 302.333 226.645C302.332 226.638 302.331 226.631 302.331 226.623C302.331 226.616 302.331 226.598 302.34 226.57L307.747 207.092C307.756 207.061 307.764 207.045 307.768 207.039C307.772 207.032 307.776 207.028 307.781 207.023C307.792 207.012 307.817 206.996 307.856 206.986C307.896 206.976 307.925 206.98 307.94 206.984C307.947 206.986 307.952 206.989 307.959 206.993C307.965 206.996 307.98 207.006 308.002 207.03Z" stroke="#FFEE5F" stroke-width="6.05311"/>
<path d="M233.15 119.323L223.264 69.7926C222.951 68.2239 224.423 66.8877 225.954 67.3513L254.511 75.9979C255.668 76.3483 256.884 75.6601 257.179 74.4875L267.75 32.4392C268.192 30.6816 270.494 30.2551 271.536 31.7377L295.557 65.9096C296.322 66.9978 297.889 67.1196 298.813 66.1627L322.89 41.2257C324.096 39.9767 326.21 40.6299 326.501 42.3415L336.3 99.9392" stroke="#FFEE5F" stroke-width="8.47045"/>
<path d="M237.267 118.313C237.815 120.587 236.415 122.875 234.141 123.422C231.867 123.969 229.579 122.57 229.032 120.295C228.485 118.021 229.884 115.734 232.159 115.187C234.433 114.639 236.72 116.039 237.267 118.313Z" fill="#FFEE5F"/>
<path d="M30.8282 362.661V386.248H63.6696V373.834H74.7296V397.534H8.25682V386.474H19.5425V320.227H8.25682V309.167H74.3911V333.996H63.3311V320.453H30.8282V351.376H62.2025V362.661H30.8282ZM105.08 320.227V386.248H138.937V373.834H149.997V397.534H82.5088V386.474H93.7945V320.227H82.5088V309.167H114.109V320.227H105.08ZM262.791 385.797C260.082 389.559 255.756 392.531 249.812 394.713C243.944 396.97 237.473 398.098 230.401 398.098C221.974 398.098 214.3 396.293 207.378 392.681C200.531 388.995 195.152 383.878 191.24 377.333C187.402 370.787 185.484 363.376 185.484 355.1C185.484 346.297 187.365 338.284 191.127 331.061C194.964 323.763 200.306 318.083 207.152 314.02C213.849 310.108 221.297 308.151 229.498 308.151C233.185 308.151 236.721 308.64 240.107 309.618C243.568 310.597 246.652 311.988 249.361 313.794V309.167H260.647V333.996H250.602C249.399 329.256 246.991 325.644 243.38 323.161C239.768 320.678 235.103 319.437 229.385 319.437C223.291 319.437 217.761 320.829 212.795 323.613C207.905 326.321 204.068 330.196 201.284 335.237C198.35 340.278 196.882 346.109 196.882 352.73C196.882 359.351 198.274 365.219 201.058 370.336C203.842 375.452 207.792 379.477 212.908 382.411C217.874 385.346 223.742 386.813 230.514 386.813C241.047 386.813 249.549 383.69 256.02 377.446L262.791 385.797ZM329.311 320.227V309.167H360.911V320.227H351.883V386.474H360.911V397.534H329.311V386.474H340.597V362.661H290.263V386.474H299.291V397.534H267.691V386.474H278.977V320.227H267.691V309.167H299.291V320.227H290.263V351.376H340.597V320.227H329.311ZM394.375 320.227V309.167H419.994L452.835 386.474H464.46V397.534H431.618V386.474H440.534L434.552 372.141H397.197L391.102 386.474H400.921V397.534H365.484V386.474H379.027L407.241 320.227H394.375ZM429.925 360.856L415.818 328.127L401.937 360.856H429.925ZM507.691 309.167C518.6 309.167 526.914 311.462 532.632 316.051C538.35 320.641 541.209 327.375 541.209 336.253C541.209 342.422 539.855 347.802 537.147 352.391C534.438 356.906 530.563 360.404 525.522 362.887C520.481 365.295 514.538 366.498 507.691 366.498H489.747V386.474H501.032V397.534H469.432V386.474H478.461V320.227H469.432V309.167H507.691ZM507.804 355.213C514.951 355.213 520.406 353.595 524.168 350.36C527.93 347.049 529.811 342.347 529.811 336.253C529.811 330.76 528.043 326.773 524.507 324.29C521.046 321.732 515.478 320.453 507.804 320.453H489.747V355.213H507.804ZM587.291 398.55C578.94 398.55 571.416 396.631 564.72 392.794C558.024 388.882 552.719 383.389 548.807 376.317C545.196 369.395 543.39 361.758 543.39 353.407C543.39 345.206 545.233 337.645 548.92 330.723C552.682 323.801 557.911 318.271 564.607 314.133C571.454 310.145 579.015 308.151 587.291 308.151C595.718 308.151 603.392 310.145 610.314 314.133C617.236 318.045 622.691 323.538 626.678 330.61C630.44 337.682 632.321 345.281 632.321 353.407C632.321 361.683 630.365 369.282 626.453 376.204C622.615 383.126 617.274 388.618 610.427 392.681C603.505 396.594 595.793 398.55 587.291 398.55ZM587.291 387.264C593.536 387.264 599.179 385.835 604.22 382.976C609.261 380.117 613.324 376.091 616.408 370.9V370.787C619.418 365.972 620.923 360.178 620.923 353.407C620.923 347.238 619.455 341.595 616.521 336.478C613.662 331.287 609.599 327.111 604.333 323.951C598.991 320.942 593.31 319.437 587.291 319.437C581.197 319.437 575.667 320.904 570.701 323.838C565.811 326.773 561.974 330.911 559.19 336.253C556.255 341.444 554.788 347.162 554.788 353.407C554.788 359.953 556.143 365.784 558.851 370.9C561.56 375.941 565.472 379.928 570.588 382.863H570.701C575.366 385.797 580.896 387.264 587.291 387.264Z" fill="#FFEE5F"/>
</svg>
