<svg width="746" height="273" viewBox="0 0 746 273" fill="none" xmlns="http://www.w3.org/2000/svg">
<path fill-rule="evenodd" clip-rule="evenodd" d="M104.806 74.5385C89.5242 78.2528 76.8695 86.4337 70.348 98.9255C63.8959 111.284 63.5655 127.634 72.2701 147.573C65.1962 154.255 64.139 163.697 67.77 170.923C71.4667 178.281 79.9289 183.197 91.4391 180.826L96.1777 204.855L98.2841 204.429L93.1284 178.286L92.087 178.496L92.0815 178.472C80.8721 181.196 73.01 176.563 69.676 169.928C66.3208 163.25 67.4511 154.387 74.62 148.344L74.0733 147.677L74.5475 147.462C65.6868 127.601 66.0886 111.724 72.2314 99.9575C78.3875 88.1655 90.4309 80.2664 105.32 76.6475L104.806 74.5385ZM97.7544 206.567L138.859 217.521L139.382 215.433L98.2771 204.478L97.7544 206.567Z" fill="white"/>
<path d="M70.348 98.9255L67.4957 97.4388L67.4957 97.4388L70.348 98.9255ZM104.806 74.5385L107.934 73.7605L107.175 70.645L104.059 71.4024L104.806 74.5385ZM72.2701 147.573L74.4739 149.918L76.1308 148.353L75.2215 146.27L72.2701 147.573ZM67.77 170.923L70.6477 169.463L70.6477 169.463L67.77 170.923ZM91.4391 180.826L94.5986 180.188L93.9724 177.012L90.8032 177.665L91.4391 180.826ZM96.1777 204.855L93.0182 205.493L93.6421 208.656L96.8016 208.018L96.1777 204.855ZM98.2841 204.429L98.9079 207.593L102.067 206.955L101.444 203.791L98.2841 204.429ZM93.1284 178.286L96.2879 177.648L95.664 174.484L92.5045 175.122L93.1284 178.286ZM92.087 178.496L88.9472 179.227L89.6428 182.279L92.7109 181.66L92.087 178.496ZM92.0815 178.472L95.2213 177.741L94.498 174.567L91.3345 175.336L92.0815 178.472ZM69.676 169.928L66.7983 171.389L66.7983 171.389L69.676 169.928ZM74.62 148.344L76.6873 150.81L79.1297 148.751L77.112 146.289L74.62 148.344ZM74.0733 147.677L72.7542 144.738L68.9168 146.481L71.5813 149.731L74.0733 147.677ZM74.5475 147.462L75.8667 150.4L78.7978 149.069L77.4884 146.134L74.5475 147.462ZM72.2314 99.9575L75.0837 101.444L75.0837 101.444L72.2314 99.9575ZM105.32 76.6475L106.067 79.7837L109.216 79.0182L108.449 75.8695L105.32 76.6475ZM138.859 217.521L138.02 220.641L141.185 221.484L141.983 218.294L138.859 217.521ZM97.7544 206.567L94.6308 205.794L93.8606 208.872L96.9148 209.686L97.7544 206.567ZM139.382 215.433L142.505 216.205L143.276 213.127L140.222 212.314L139.382 215.433ZM98.2771 204.478L99.1167 201.359L95.9516 200.515L95.1535 203.705L98.2771 204.478ZM73.2003 100.412C79.167 88.983 90.8838 81.2401 105.553 77.6747L104.059 71.4024C88.1647 75.2655 74.5719 83.8844 67.4957 97.4388L73.2003 100.412ZM75.2215 146.27C66.7861 126.947 67.3262 111.664 73.2003 100.412L67.4957 97.4388C60.4656 110.905 60.3449 128.321 69.3187 148.877L75.2215 146.27ZM70.6477 169.463C67.639 163.475 68.4689 155.589 74.4739 149.918L70.0663 145.229C61.9234 152.92 60.6389 163.919 64.8923 172.384L70.6477 169.463ZM90.8032 177.665C80.6168 179.763 73.6483 175.435 70.6477 169.463L64.8923 172.384C69.2851 181.127 79.241 186.63 92.075 183.987L90.8032 177.665ZM99.3372 204.217L94.5986 180.188L88.2796 181.464L93.0182 205.493L99.3372 204.217ZM97.6602 201.266L95.5539 201.691L96.8016 208.018L98.9079 207.593L97.6602 201.266ZM89.9689 178.924L95.1246 205.067L101.444 203.791L96.2879 177.648L89.9689 178.924ZM92.7109 181.66L93.7522 181.449L92.5045 175.122L91.4631 175.332L92.7109 181.66ZM88.9417 179.203L88.9472 179.227L95.2269 177.765L95.2213 177.741L88.9417 179.203ZM66.7983 171.389C70.857 179.467 80.2861 184.657 92.8285 181.608L91.3345 175.336C81.458 177.736 75.163 173.66 72.5537 168.467L66.7983 171.389ZM72.5527 145.878C64.2104 152.91 62.7887 163.408 66.7983 171.389L72.5537 168.467C69.853 163.092 70.6918 155.864 76.6873 150.81L72.5527 145.878ZM71.5813 149.731L72.1279 150.398L77.112 146.289L76.5654 145.622L71.5813 149.731ZM73.2283 144.523L72.7542 144.738L75.3925 150.616L75.8667 150.4L73.2283 144.523ZM69.3791 98.4707C62.6504 111.359 62.472 128.314 71.6065 148.789L77.4884 146.134C68.9017 126.888 69.5268 112.089 75.0837 101.444L69.3791 98.4707ZM104.573 73.5114C89.0706 77.2793 76.0896 85.6167 69.3791 98.4707L75.0837 101.444C80.6854 90.7142 91.7912 83.2535 106.067 79.7837L104.573 73.5114ZM101.677 75.3166L102.191 77.4256L108.449 75.8695L107.934 73.7605L101.677 75.3166ZM139.699 214.402L98.5941 203.447L96.9148 209.686L138.02 220.641L139.699 214.402ZM136.258 214.66L135.736 216.749L141.983 218.294L142.505 216.205L136.258 214.66ZM97.4374 207.597L138.542 218.552L140.222 212.314L99.1167 201.359L97.4374 207.597ZM100.878 207.339L101.401 205.251L95.1535 203.705L94.6308 205.794L100.878 207.339Z" fill="white"/>
<path fill-rule="evenodd" clip-rule="evenodd" d="M109.344 73.4418C124.626 69.7275 139.579 71.198 151.012 79.3259C162.322 87.3669 169.979 101.774 171.206 123.529C180.514 126.229 185.706 134.151 185.727 142.255C185.748 150.506 180.426 158.772 169.108 161.95L175.701 185.5L173.634 186.089L166.453 160.438L168.52 159.849L168.527 159.873C178.993 156.932 183.599 149.449 183.581 142.244C183.562 134.756 178.565 127.382 169.459 125.294L169.645 124.454L169.128 124.48C168.075 102.721 160.568 88.7664 149.799 81.1103C139.007 73.4378 124.725 71.9374 109.836 75.5562L109.344 73.4418ZM175.078 187.79L143.405 216.434L141.999 214.814L173.672 186.17L175.078 187.79Z" fill="white"/>
<path d="M151.012 79.3259L152.883 76.6912L152.883 76.6912L151.012 79.3259ZM109.344 73.4418L106.207 74.1866L105.481 71.0631L108.597 70.3057L109.344 73.4418ZM171.206 123.529L170.299 126.629L168.119 125.997L167.991 123.724L171.206 123.529ZM185.727 142.255L182.506 142.276L182.506 142.276L185.727 142.255ZM169.108 161.95L166.007 162.833L165.135 159.718L168.251 158.842L169.108 161.95ZM175.701 185.5L178.802 184.616L179.671 187.72L176.57 188.604L175.701 185.5ZM173.634 186.089L174.503 189.193L171.402 190.076L170.533 186.972L173.634 186.089ZM166.453 160.438L163.352 161.321L162.483 158.217L165.584 157.334L166.453 160.438ZM168.52 159.849L167.651 156.745L170.752 155.861L171.621 158.965L168.52 159.849ZM168.527 159.873L169.385 162.98L166.292 163.85L165.426 160.757L168.527 159.873ZM183.581 142.244L180.361 142.266L180.361 142.266L183.581 142.244ZM169.459 125.294L168.729 128.44L165.626 127.729L166.315 124.61L169.459 125.294ZM169.645 124.454L169.496 121.23L173.698 121.019L172.789 125.138L169.645 124.454ZM169.128 124.48L169.276 127.703L166.067 127.864L165.911 124.649L169.128 124.48ZM149.799 81.1103L147.929 83.7451L149.799 81.1103ZM109.836 75.5562L110.583 78.6924L107.433 79.4579L106.699 76.301L109.836 75.5562ZM143.405 216.434L145.557 218.826L143.119 221.032L140.971 218.558L143.405 216.434ZM175.078 187.79L177.512 185.667L179.584 188.054L177.23 190.182L175.078 187.79ZM141.999 214.814L139.565 216.938L137.493 214.551L139.847 212.423L141.999 214.814ZM173.672 186.17L171.52 183.778L173.959 181.573L176.106 184.047L173.672 186.17ZM149.141 81.9606C138.681 74.524 124.76 73.0126 110.091 76.578L108.597 70.3057C124.491 66.4425 140.477 67.8719 152.883 76.6912L149.141 81.9606ZM167.991 123.724C166.801 102.642 159.438 89.2812 149.141 81.9606L152.883 76.6912C165.206 85.4525 173.156 100.906 174.421 123.333L167.991 123.724ZM182.506 142.276C182.489 135.561 178.2 128.921 170.299 126.629L172.113 120.428C182.827 123.536 188.923 132.74 188.947 142.233L182.506 142.276ZM168.251 158.842C178.267 156.03 182.523 148.974 182.506 142.276L188.947 142.233C188.972 152.038 182.585 161.513 169.966 165.057L168.251 158.842ZM172.6 186.383L166.007 162.833L172.209 161.066L178.802 184.616L172.6 186.383ZM172.765 182.985L174.832 182.396L176.57 188.604L174.503 189.193L172.765 182.985ZM169.554 159.554L176.735 185.205L170.533 186.972L163.352 161.321L169.554 159.554ZM169.389 162.953L167.322 163.542L165.584 157.334L167.651 156.745L169.389 162.953ZM165.426 160.757L165.419 160.732L171.621 158.965L171.628 158.99L165.426 160.757ZM186.802 142.223C186.824 150.975 181.157 159.671 169.385 162.98L167.669 156.766C176.828 154.192 180.375 147.922 180.361 142.266L186.802 142.223ZM170.19 122.148C180.786 124.578 186.779 133.273 186.802 142.223L180.361 142.266C180.345 136.238 176.344 130.187 168.729 128.44L170.19 122.148ZM172.789 125.138L172.603 125.979L166.315 124.61L166.5 123.769L172.789 125.138ZM168.979 121.256L169.496 121.23L169.793 127.677L169.276 127.703L168.979 121.256ZM151.67 78.4756C163.466 86.8618 171.26 101.879 172.345 124.31L165.911 124.649C164.891 103.563 157.671 90.6709 147.929 83.7451L151.67 78.4756ZM109.089 72.4201C124.591 68.6521 139.906 70.1121 151.67 78.4756L147.929 83.7451C138.108 76.7635 124.858 75.2226 110.583 78.6924L109.089 72.4201ZM112.481 72.697L112.972 74.8115L106.699 76.301L106.207 74.1866L112.481 72.697ZM141.253 214.043L172.926 185.398L177.23 190.182L145.557 218.826L141.253 214.043ZM144.433 212.691L145.839 214.311L140.971 218.558L139.565 216.938L144.433 212.691ZM175.824 188.562L144.151 217.206L139.847 212.423L171.52 183.778L175.824 188.562ZM172.644 189.914L171.238 188.294L176.106 184.047L177.512 185.667L172.644 189.914Z" fill="white"/>
<path d="M141.649 219.054L143.173 220.949L141.134 221.429L141.649 219.054Z" fill="white"/>
<path d="M107.879 145.366C108.801 149.236 106.473 153.027 102.815 153.916C99.1564 154.805 95.3766 152.499 94.4547 148.629C93.5329 144.759 95.8606 140.968 99.519 140.079C103.177 139.19 106.957 141.496 107.879 145.366Z" fill="white" stroke="white" stroke-width="4.94331"/>
<path d="M102.917 128.92C103.189 130.064 102.503 131.212 101.385 131.484C100.266 131.755 99.1385 131.048 98.866 129.904C98.5934 128.76 99.2793 127.612 100.398 127.34C101.516 127.068 102.644 127.775 102.917 128.92Z" fill="white"/>
<path d="M110.169 130.569C110.441 131.713 109.756 132.861 108.637 133.133C107.519 133.405 106.391 132.697 106.118 131.553C105.846 130.409 106.532 129.261 107.65 128.989C108.769 128.717 109.896 129.424 110.169 130.569Z" fill="white"/>
<path d="M116.711 135.558C116.983 136.702 116.297 137.85 115.179 138.122C114.06 138.394 112.933 137.686 112.66 136.542C112.388 135.398 113.073 134.25 114.192 133.978C115.31 133.706 116.438 134.413 116.711 135.558Z" fill="white"/>
<path d="M120.463 142.31C120.736 143.454 120.05 144.602 118.931 144.874C117.813 145.146 116.685 144.438 116.413 143.294C116.14 142.15 116.826 141.002 117.944 140.73C119.063 140.458 120.191 141.165 120.463 142.31Z" fill="white"/>
<path d="M120.411 151.084C120.684 152.228 119.998 153.376 118.879 153.648C117.761 153.92 116.633 153.213 116.361 152.068C116.088 150.924 116.774 149.776 117.892 149.504C119.011 149.232 120.139 149.94 120.411 151.084Z" fill="white"/>
<path d="M116.583 157.492C116.855 158.637 116.169 159.784 115.051 160.056C113.932 160.328 112.804 159.621 112.532 158.477C112.259 157.333 112.945 156.185 114.064 155.913C115.182 155.641 116.31 156.348 116.583 157.492Z" fill="white"/>
<path d="M110.47 162.252C110.743 163.396 110.057 164.544 108.938 164.816C107.82 165.088 106.692 164.38 106.419 163.236C106.147 162.092 106.833 160.944 107.951 160.672C109.07 160.4 110.197 161.107 110.47 162.252Z" fill="white"/>
<path d="M102.679 164.229C102.952 165.374 102.266 166.522 101.147 166.794C100.029 167.065 98.9011 166.358 98.6285 165.214C98.356 164.07 99.0418 162.922 100.16 162.65C101.279 162.378 102.407 163.085 102.679 164.229Z" fill="white"/>
<path d="M95.2871 162.18C95.5596 163.324 94.8738 164.472 93.7552 164.744C92.6367 165.016 91.509 164.309 91.2364 163.165C90.9639 162.02 91.6497 160.872 92.7683 160.601C93.8868 160.329 95.0145 161.036 95.2871 162.18Z" fill="white"/>
<path d="M88.524 156.631C88.7965 157.776 88.1107 158.924 86.9921 159.196C85.8736 159.467 84.7459 158.76 84.4734 157.616C84.2008 156.472 84.8867 155.324 86.0052 155.052C87.1238 154.78 88.2515 155.487 88.524 156.631Z" fill="white"/>
<path d="M85.5394 148.603C85.8119 149.748 85.1261 150.896 84.0076 151.167C82.889 151.439 81.7613 150.732 81.4888 149.588C81.2162 148.444 81.9021 147.296 83.0206 147.024C84.1392 146.752 85.2669 147.459 85.5394 148.603Z" fill="white"/>
<path d="M85.5896 139.816C85.8621 140.96 85.1763 142.108 84.0577 142.38C82.9392 142.652 81.8115 141.945 81.5389 140.8C81.2664 139.656 81.9522 138.508 83.0708 138.236C84.1893 137.964 85.317 138.672 85.5896 139.816Z" fill="white"/>
<path d="M90.1834 134.267C90.456 135.411 89.7701 136.559 88.6516 136.831C87.533 137.103 86.4053 136.396 86.1328 135.252C85.8602 134.108 86.5461 132.96 87.6646 132.688C88.7832 132.416 89.9109 133.123 90.1834 134.267Z" fill="white"/>
<path d="M96.2619 130.64C96.5345 131.784 95.8486 132.932 94.7301 133.204C93.6115 133.476 92.4838 132.769 92.2113 131.625C91.9388 130.481 92.6246 129.333 93.7432 129.061C94.8617 128.789 95.9894 129.496 96.2619 130.64Z" fill="white"/>
<path d="M152.434 134.508C153.356 138.378 151.028 142.169 147.37 143.058C143.711 143.947 139.931 141.641 139.01 137.771C138.088 133.901 140.415 130.11 144.074 129.221C147.732 128.332 151.512 130.638 152.434 134.508Z" fill="white" stroke="white" stroke-width="4.94331"/>
<path d="M147.472 118.061C147.744 119.206 147.058 120.354 145.94 120.625C144.821 120.897 143.693 120.19 143.421 119.046C143.148 117.902 143.834 116.754 144.953 116.482C146.071 116.21 147.199 116.917 147.472 118.061Z" fill="white"/>
<path d="M154.724 119.711C154.996 120.855 154.311 122.003 153.192 122.275C152.073 122.546 150.946 121.839 150.673 120.695C150.401 119.551 151.086 118.403 152.205 118.131C153.324 117.859 154.451 118.566 154.724 119.711Z" fill="white"/>
<path d="M161.266 124.7C161.538 125.844 160.852 126.992 159.734 127.264C158.615 127.535 157.487 126.828 157.215 125.684C156.942 124.54 157.628 123.392 158.747 123.12C159.865 122.848 160.993 123.555 161.266 124.7Z" fill="white"/>
<path d="M165.018 131.452C165.291 132.596 164.605 133.744 163.486 134.016C162.368 134.287 161.24 133.58 160.967 132.436C160.695 131.292 161.381 130.144 162.499 129.872C163.618 129.6 164.746 130.307 165.018 131.452Z" fill="white"/>
<path d="M164.966 140.226C165.239 141.37 164.553 142.518 163.434 142.79C162.316 143.062 161.188 142.354 160.915 141.21C160.643 140.066 161.329 138.918 162.447 138.646C163.566 138.374 164.694 139.081 164.966 140.226Z" fill="white"/>
<path d="M161.137 146.634C161.41 147.778 160.724 148.926 159.606 149.198C158.487 149.47 157.359 148.763 157.087 147.619C156.814 146.474 157.5 145.326 158.619 145.055C159.737 144.783 160.865 145.49 161.137 146.634Z" fill="white"/>
<path d="M155.025 151.393C155.297 152.538 154.612 153.686 153.493 153.957C152.374 154.229 151.247 153.522 150.974 152.378C150.702 151.234 151.388 150.086 152.506 149.814C153.625 149.542 154.752 150.249 155.025 151.393Z" fill="white"/>
<path d="M147.234 153.371C147.507 154.516 146.821 155.664 145.702 155.935C144.584 156.207 143.456 155.5 143.183 154.356C142.911 153.212 143.597 152.064 144.715 151.792C145.834 151.52 146.962 152.227 147.234 153.371Z" fill="white"/>
<path d="M139.842 151.322C140.115 152.466 139.429 153.614 138.31 153.886C137.192 154.158 136.064 153.451 135.791 152.306C135.519 151.162 136.205 150.014 137.323 149.742C138.442 149.47 139.569 150.178 139.842 151.322Z" fill="white"/>
<path d="M133.08 145.773C133.352 146.918 132.667 148.065 131.548 148.337C130.429 148.609 129.302 147.902 129.029 146.758C128.757 145.614 129.442 144.466 130.561 144.194C131.68 143.922 132.807 144.629 133.08 145.773Z" fill="white"/>
<path d="M130.094 137.745C130.367 138.889 129.681 140.037 128.562 140.309C127.444 140.581 126.316 139.874 126.044 138.73C125.771 137.586 126.457 136.438 127.576 136.166C128.694 135.894 129.822 136.601 130.094 137.745Z" fill="white"/>
<path d="M130.144 128.958C130.417 130.102 129.731 131.25 128.613 131.522C127.494 131.794 126.366 131.086 126.094 129.942C125.821 128.798 126.507 127.65 127.626 127.378C128.744 127.106 129.872 127.813 130.144 128.958Z" fill="white"/>
<path d="M134.738 123.409C135.011 124.553 134.325 125.701 133.206 125.973C132.088 126.245 130.96 125.538 130.688 124.394C130.415 123.249 131.101 122.101 132.22 121.83C133.338 121.558 134.466 122.265 134.738 123.409Z" fill="white"/>
<path d="M140.817 119.782C141.089 120.926 140.404 122.074 139.285 122.346C138.166 122.618 137.039 121.911 136.766 120.767C136.494 119.622 137.18 118.474 138.298 118.203C139.417 117.931 140.544 118.638 140.817 119.782Z" fill="white"/>
<path d="M129.501 168.306L140.596 180.443C140.613 180.461 140.62 180.473 140.622 180.478C140.625 180.484 140.627 180.489 140.628 180.495C140.631 180.508 140.632 180.532 140.623 180.561C140.614 180.591 140.6 180.61 140.59 180.619C140.586 180.623 140.582 180.627 140.576 180.63C140.571 180.633 140.558 180.639 140.534 180.645L125.023 184.415C124.999 184.421 124.985 184.421 124.979 184.421C124.973 184.42 124.967 184.419 124.962 184.418C124.949 184.414 124.928 184.403 124.907 184.381C124.885 184.359 124.875 184.337 124.872 184.325C124.87 184.319 124.87 184.314 124.87 184.307C124.87 184.301 124.87 184.287 124.877 184.263L129.293 168.357C129.3 168.331 129.307 168.319 129.31 168.314C129.313 168.308 129.317 168.304 129.321 168.301C129.33 168.292 129.35 168.278 129.382 168.27C129.414 168.263 129.439 168.266 129.451 168.269C129.456 168.27 129.461 168.272 129.466 168.276C129.471 168.279 129.483 168.287 129.501 168.306Z" stroke="white" stroke-width="4.94331"/>
<path d="M68.3732 96.6561L60.2995 56.2071C60.0437 54.926 61.2462 53.8349 62.4965 54.2135L85.818 61.2747C86.7631 61.5609 87.7555 60.9989 87.9963 60.0412L96.6294 25.7023C96.9903 24.2669 98.8702 23.9186 99.7213 25.1294L119.338 53.0361C119.963 53.9248 121.243 54.0242 121.997 53.2428L141.66 32.8778C142.645 31.8578 144.371 32.3912 144.609 33.789L152.611 80.8266" stroke="white" stroke-width="6.91745"/>
<path d="M71.7356 95.8393C72.1826 97.6965 71.0395 99.5644 69.1823 100.011C67.3252 100.458 65.4573 99.3153 65.0102 97.4581C64.5632 95.601 65.7064 93.7331 67.5635 93.2861C69.4207 92.839 71.2886 93.9822 71.7356 95.8393Z" fill="white"/>
<path d="M247.179 149.114V168.376H273.999V158.238H283.031V177.593H228.746V168.561H237.962V114.46H228.746V105.427H282.755V125.704H273.722V114.644H247.179V139.897H272.801V149.114H247.179ZM307.817 114.46V168.376H335.467V158.238H344.499V177.593H289.384V168.561H298.601V114.46H289.384V105.427H315.19V114.46H307.817ZM436.613 168.008C434.401 171.08 430.868 173.507 426.013 175.289C421.221 177.132 415.937 178.054 410.161 178.054C403.279 178.054 397.012 176.579 391.359 173.63C385.768 170.619 381.375 166.441 378.18 161.095C375.046 155.75 373.479 149.697 373.479 142.939C373.479 135.75 375.015 129.206 378.087 123.307C381.221 117.347 385.584 112.708 391.175 109.39C396.643 106.195 402.726 104.598 409.424 104.598C412.434 104.598 415.322 104.997 418.087 105.796C420.914 106.595 423.433 107.731 425.645 109.206V105.427H434.861V125.704H426.659C425.676 121.833 423.709 118.883 420.76 116.856C417.811 114.828 414.001 113.814 409.332 113.814C404.355 113.814 399.839 114.951 395.783 117.225C391.789 119.436 388.656 122.601 386.382 126.718C383.986 130.834 382.788 135.596 382.788 141.003C382.788 146.41 383.925 151.203 386.198 155.381C388.471 159.559 391.697 162.846 395.875 165.243C399.931 167.639 404.723 168.837 410.253 168.837C418.855 168.837 425.798 166.287 431.083 161.187L436.613 168.008ZM490.937 114.46V105.427H516.743V114.46H509.37V168.561H516.743V177.593H490.937V168.561H500.153V149.114H459.048V168.561H466.421V177.593H440.615V168.561H449.831V114.46H440.615V105.427H466.421V114.46H459.048V139.897H500.153V114.46H490.937ZM544.072 114.46V105.427H564.993L591.813 168.561H601.306V177.593H574.486V168.561H581.767L576.883 156.856H546.376L541.399 168.561H549.417V177.593H520.477V168.561H531.537L554.579 114.46H544.072ZM573.104 147.639L561.583 120.911L550.247 147.639H573.104ZM636.612 105.427C645.521 105.427 652.31 107.301 656.98 111.049C661.65 114.797 663.985 120.297 663.985 127.547C663.985 132.585 662.879 136.979 660.667 140.727C658.455 144.413 655.29 147.27 651.174 149.298C647.057 151.264 642.203 152.247 636.612 152.247H621.957V168.561H631.174V177.593H605.367V168.561H612.741V114.46H605.367V105.427H636.612ZM636.704 143.031C642.541 143.031 646.995 141.71 650.068 139.068C653.14 136.364 654.676 132.524 654.676 127.547C654.676 123.062 653.232 119.805 650.344 117.777C647.518 115.688 642.971 114.644 636.704 114.644H621.957V143.031H636.704ZM701.618 178.422C694.797 178.422 688.653 176.856 683.185 173.722C677.716 170.527 673.384 166.041 670.189 160.266C667.24 154.613 665.765 148.376 665.765 141.556C665.765 134.859 667.271 128.684 670.281 123.031C673.354 117.378 677.624 112.862 683.092 109.483C688.684 106.226 694.859 104.598 701.618 104.598C708.499 104.598 714.767 106.226 720.419 109.483C726.072 112.678 730.527 117.163 733.783 122.939C736.856 128.714 738.392 134.92 738.392 141.556C738.392 148.315 736.794 154.521 733.599 160.174C730.465 165.826 726.103 170.312 720.512 173.63C714.859 176.825 708.561 178.422 701.618 178.422ZM701.618 169.206C706.718 169.206 711.326 168.038 715.443 165.704C719.559 163.369 722.877 160.081 725.396 155.842V155.75C727.854 151.817 729.083 147.086 729.083 141.556C729.083 136.518 727.885 131.91 725.489 127.731C723.154 123.492 719.836 120.082 715.535 117.501C711.172 115.043 706.533 113.814 701.618 113.814C696.641 113.814 692.125 115.013 688.069 117.409C684.076 119.805 680.942 123.185 678.668 127.547C676.272 131.787 675.074 136.456 675.074 141.556C675.074 146.902 676.18 151.664 678.392 155.842C680.604 159.959 683.799 163.215 687.977 165.611H688.069C691.879 168.008 696.395 169.206 701.618 169.206Z" fill="white"/>
</svg>
