<svg width="500" height="500" viewBox="0 0 500 500" fill="none" xmlns="http://www.w3.org/2000/svg">
<rect width="500" height="500" rx="250" fill="#040404"/>
<path fill-rule="evenodd" clip-rule="evenodd" d="M211.13 145.659C185.155 151.972 163.645 165.877 152.56 187.11C141.594 208.117 141.032 235.907 155.827 269.798C143.804 281.154 142.008 297.202 148.18 309.485C154.463 321.991 168.846 330.347 188.41 326.318L196.462 367.146L200.042 366.423L191.279 321.985L189.509 322.343L189.503 322.316C189.206 322.388 188.91 322.457 188.615 322.523L187.699 322.709L187.701 322.72C169.607 326.442 156.906 318.713 151.419 307.793C145.716 296.443 147.637 281.378 159.823 271.106L158.895 269.974L159.698 269.61C144.638 235.851 145.32 208.865 155.762 188.864C166.226 168.821 186.696 155.395 212.004 149.243L211.13 145.659ZM199.144 370.073L269.012 388.694L269.9 385.143L200.033 366.523L199.144 370.073Z" fill="white"/>
<path d="M152.56 187.11L157.409 189.638L152.56 187.11ZM211.13 145.659L216.448 144.336L215.157 139.041L209.86 140.328L211.13 145.659ZM155.827 269.798L159.573 273.782L162.389 271.122L160.843 267.582L155.827 269.798ZM148.18 309.485L143.288 311.968L148.18 309.485ZM188.41 326.318L193.781 325.233L192.716 319.835L187.33 320.944L188.41 326.318ZM196.462 367.146L191.092 368.231L192.152 373.608L197.523 372.523L196.462 367.146ZM200.042 366.423L201.103 371.8L206.473 370.715L205.413 365.338L200.042 366.423ZM191.279 321.985L196.649 320.901L195.589 315.524L190.219 316.608L191.279 321.985ZM189.509 322.343L184.172 323.585L185.355 328.773L190.57 327.72L189.509 322.343ZM189.503 322.316L194.84 321.074L193.61 315.678L188.233 316.985L189.503 322.316ZM188.615 322.523L189.676 327.901L189.735 327.889L189.793 327.876L188.615 322.523ZM187.699 322.709L186.638 317.331L181.268 318.416L182.328 323.794L187.699 322.709ZM187.701 322.72L188.781 328.094L194.128 326.994L193.071 321.635L187.701 322.72ZM151.419 307.793L146.528 310.276L146.528 310.276L151.419 307.793ZM159.823 271.106L163.337 275.298L167.488 271.798L164.059 267.614L159.823 271.106ZM158.895 269.974L156.653 264.979L150.131 267.941L154.66 273.466L158.895 269.974ZM159.698 269.61L161.941 274.605L166.923 272.342L164.697 267.354L159.698 269.61ZM155.762 188.864L160.61 191.392L155.762 188.864ZM212.004 149.243L213.274 154.574L218.627 153.273L217.322 147.921L212.004 149.243ZM269.012 388.694L267.585 393.995L272.965 395.429L274.321 390.007L269.012 388.694ZM199.144 370.073L193.835 368.759L192.526 373.991L197.717 375.375L199.144 370.073ZM269.9 385.143L275.21 386.457L276.519 381.225L271.328 379.842L269.9 385.143ZM200.033 366.523L201.46 361.221L196.08 359.787L194.723 365.209L200.033 366.523ZM157.409 189.638C167.551 170.211 187.466 157.05 212.4 150.989L209.86 140.328C182.844 146.894 159.74 161.544 147.712 184.583L157.409 189.638ZM160.843 267.582C146.506 234.739 147.424 208.762 157.409 189.638L147.712 184.583C135.763 207.472 135.558 237.074 150.81 272.014L160.843 267.582ZM153.071 307.002C147.957 296.825 149.367 283.423 159.573 273.782L152.081 265.814C138.242 278.886 136.059 297.58 143.288 311.968L153.071 307.002ZM187.33 320.944C170.016 324.51 158.171 317.153 153.071 307.002L143.288 311.968C150.755 326.829 167.677 336.183 189.491 331.691L187.33 320.944ZM201.832 366.061L193.781 325.233L183.04 327.402L191.092 368.231L201.832 366.061ZM198.982 361.046L195.402 361.769L197.523 372.523L201.103 371.8L198.982 361.046ZM185.909 323.07L194.672 367.508L205.413 365.338L196.649 320.901L185.909 323.07ZM190.57 327.72L192.339 327.363L190.219 316.608L188.449 316.966L190.57 327.72ZM184.166 323.558L184.172 323.585L194.846 321.101L194.84 321.074L184.166 323.558ZM189.793 327.876C190.118 327.803 190.445 327.726 190.773 327.646L188.233 316.985C187.967 317.05 187.702 317.112 187.438 317.171L189.793 327.876ZM188.759 328.086L189.676 327.901L187.555 317.146L186.638 317.331L188.759 328.086ZM193.071 321.635L193.069 321.624L182.328 323.794L182.331 323.805L193.071 321.635ZM146.528 310.276C153.193 323.542 168.428 332.28 188.781 328.094L186.621 317.347C170.786 320.604 160.618 313.884 156.311 305.31L146.528 310.276ZM156.309 266.914C142.129 278.868 139.713 296.712 146.528 310.276L156.311 305.31C151.72 296.174 153.146 283.889 163.337 275.298L156.309 266.914ZM154.66 273.466L155.587 274.598L164.059 267.614L163.131 266.482L154.66 273.466ZM157.456 264.615L156.653 264.979L161.138 274.969L161.941 274.605L157.456 264.615ZM150.914 186.337C139.476 208.245 139.173 237.064 154.699 271.866L164.697 267.354C150.102 234.639 151.164 209.484 160.61 191.392L150.914 186.337ZM210.734 143.913C184.384 150.317 162.32 164.489 150.914 186.337L160.61 191.392C170.131 173.153 189.008 160.472 213.274 154.574L210.734 143.913ZM205.812 146.981L206.686 150.566L217.322 147.921L216.448 144.336L205.812 146.981ZM270.439 383.392L200.571 364.771L197.717 375.375L267.585 393.995L270.439 383.392ZM264.591 383.83L263.703 387.38L274.321 390.007L275.21 386.457L264.591 383.83ZM198.605 371.824L268.473 390.445L271.328 379.842L201.46 361.221L198.605 371.824ZM204.454 371.387L205.342 367.836L194.723 365.209L193.835 368.759L204.454 371.387Z" fill="white"/>
<path fill-rule="evenodd" clip-rule="evenodd" d="M218.843 143.796C244.818 137.483 270.235 139.982 289.668 153.798C308.891 167.464 321.904 191.95 323.992 228.922C339.812 233.511 348.638 246.977 348.673 260.751C348.709 274.777 339.661 288.828 320.422 294.229L331.632 334.274L328.118 335.276L315.912 291.675L317.653 291.179L317.65 291.166C317.769 291.138 317.887 291.108 318.004 291.079L319.426 290.674L319.434 290.699C337.226 285.7 345.057 272.98 345.026 260.733C344.993 248.004 336.499 235.472 321.022 231.923L321.335 230.504L320.46 230.548C318.671 193.563 305.911 169.844 287.607 156.831C269.262 143.789 244.986 141.239 219.679 147.39L218.843 143.796ZM330.573 338.162L276.737 386.85L274.347 384.096L328.183 335.409L330.573 338.162Z" fill="white"/>
<path d="M289.668 153.798L292.847 149.319L289.668 153.798ZM218.843 143.796L213.511 145.062L212.276 139.753L217.573 138.466L218.843 143.796ZM323.992 228.922L322.45 234.192L318.745 233.117L318.527 229.254L323.992 228.922ZM348.673 260.751L343.199 260.788L348.673 260.751ZM320.422 294.229L315.151 295.731L313.668 290.434L318.965 288.947L320.422 294.229ZM331.632 334.274L336.903 332.773L338.38 338.049L333.109 339.55L331.632 334.274ZM328.118 335.276L329.595 340.552L324.324 342.053L322.847 336.777L328.118 335.276ZM315.912 291.675L310.641 293.177L309.164 287.901L314.435 286.399L315.912 291.675ZM317.653 291.179L322.965 289.833L324.248 294.997L319.13 296.455L317.653 291.179ZM317.65 291.166L312.338 292.512L311.004 287.142L316.38 285.836L317.65 291.166ZM318.004 291.079L319.482 296.355L319.397 296.379L319.311 296.4L318.004 291.079ZM319.426 290.674L317.949 285.398L323.22 283.896L324.697 289.172L319.426 290.674ZM319.434 290.699L320.891 295.981L315.635 297.458L314.163 292.202L319.434 290.699ZM345.026 260.733L350.5 260.697L350.5 260.697L345.026 260.733ZM321.022 231.923L319.78 237.27L314.507 236.061L315.677 230.759L321.022 231.923ZM321.335 230.504L321.083 225.025L328.225 224.665L326.68 231.667L321.335 230.504ZM320.46 230.548L320.713 236.026L315.257 236.301L314.993 230.836L320.46 230.548ZM287.607 156.831L284.427 161.309L287.607 156.831ZM219.679 147.39L220.948 152.721L215.595 154.022L214.347 148.656L219.679 147.39ZM276.737 386.85L280.395 390.916L276.25 394.665L272.6 390.46L276.737 386.85ZM330.573 338.162L334.71 334.553L338.232 338.61L334.231 342.228L330.573 338.162ZM274.347 384.096L270.21 387.706L266.689 383.648L270.689 380.031L274.347 384.096ZM328.183 335.409L324.525 331.343L328.67 327.594L332.32 331.799L328.183 335.409ZM286.488 158.276C268.708 145.636 245.046 143.067 220.112 149.127L217.573 138.466C244.589 131.899 271.761 134.329 292.847 149.319L286.488 158.276ZM318.527 229.254C316.503 193.426 303.989 170.718 286.488 158.276L292.847 149.319C313.793 164.21 327.305 190.474 329.457 228.59L318.527 229.254ZM343.199 260.788C343.17 249.374 335.879 238.087 322.45 234.192L325.534 223.652C343.745 228.935 354.106 244.58 354.147 260.715L343.199 260.788ZM318.965 288.947C335.992 284.167 343.228 272.172 343.199 260.788L354.147 260.715C354.189 277.381 343.33 293.488 321.878 299.511L318.965 288.947ZM326.361 335.776L315.151 295.731L325.693 292.727L336.903 332.773L326.361 335.776ZM326.641 330L330.155 328.999L333.109 339.55L329.595 340.552L326.641 330ZM321.183 290.173L333.389 333.774L322.847 336.777L310.641 293.177L321.183 290.173ZM319.13 296.455L317.389 296.951L314.435 286.399L316.176 285.903L319.13 296.455ZM322.962 289.821L322.965 289.833L312.341 292.525L312.338 292.512L322.962 289.821ZM319.311 296.4C319.181 296.433 319.05 296.465 318.92 296.497L316.38 285.836C316.487 285.81 316.593 285.784 316.698 285.757L319.311 296.4ZM320.903 295.95L319.482 296.355L316.527 285.803L317.949 285.398L320.903 295.95ZM314.163 292.202L314.155 292.176L324.697 289.172L324.705 289.197L314.163 292.202ZM350.5 260.697C350.538 275.575 340.904 290.357 320.891 295.981L317.976 285.418C333.547 281.043 339.576 270.385 339.552 260.77L350.5 260.697ZM322.264 226.575C340.274 230.705 350.461 245.485 350.5 260.697L339.552 260.77C339.526 250.524 332.724 240.238 319.78 237.27L322.264 226.575ZM326.68 231.667L326.367 233.086L315.677 230.759L315.99 229.34L326.68 231.667ZM320.208 225.069L321.083 225.025L321.587 235.982L320.713 236.026L320.208 225.069ZM290.786 152.353C310.836 166.607 324.084 192.132 325.928 230.26L314.993 230.836C313.259 194.995 300.986 173.081 284.427 161.309L290.786 152.353ZM218.409 142.06C244.759 135.655 270.79 138.137 290.786 152.353L284.427 161.309C267.735 149.442 245.213 146.823 220.948 152.721L218.409 142.06ZM224.174 142.53L225.01 146.124L214.347 148.656L213.511 145.062L224.174 142.53ZM273.079 382.784L326.915 334.097L334.231 342.228L280.395 390.916L273.079 382.784ZM278.484 380.487L280.874 383.24L272.6 390.46L270.21 387.706L278.484 380.487ZM331.841 339.474L278.005 388.162L270.689 380.031L324.525 331.343L331.841 339.474ZM326.436 341.772L324.046 339.018L332.32 331.799L334.71 334.553L326.436 341.772Z" fill="white"/>
<path d="M273.753 391.286L276.342 394.506L272.876 395.323L273.753 391.286Z" fill="white"/>
<path d="M216.35 266.043C217.916 272.622 213.96 279.065 207.742 280.576C201.523 282.088 195.098 278.168 193.531 271.589C191.965 265.011 195.921 258.568 202.139 257.056C208.358 255.545 214.783 259.465 216.35 266.043Z" fill="white" stroke="white" stroke-width="8.40238"/>
<path d="M207.915 238.1C208.378 240.045 207.213 241.996 205.311 242.459C203.41 242.921 201.493 241.719 201.03 239.774C200.567 237.829 201.733 235.878 203.634 235.415C205.535 234.953 207.452 236.155 207.915 238.1Z" fill="white"/>
<path d="M220.24 240.893C220.704 242.838 219.538 244.789 217.637 245.251C215.735 245.713 213.819 244.511 213.355 242.566C212.892 240.621 214.058 238.67 215.959 238.208C217.86 237.746 219.777 238.948 220.24 240.893Z" fill="white"/>
<path d="M231.361 249.366C231.824 251.311 230.659 253.262 228.757 253.724C226.856 254.186 224.939 252.984 224.476 251.039C224.013 249.094 225.178 247.143 227.08 246.681C228.981 246.219 230.898 247.421 231.361 249.366Z" fill="white"/>
<path d="M237.738 260.841C238.201 262.786 237.035 264.737 235.134 265.199C233.232 265.661 231.316 264.459 230.852 262.514C230.389 260.569 231.555 258.618 233.456 258.156C235.357 257.694 237.274 258.896 237.738 260.841Z" fill="white"/>
<path d="M237.651 275.768C238.114 277.713 236.948 279.664 235.047 280.126C233.146 280.589 231.229 279.387 230.766 277.442C230.302 275.497 231.468 273.546 233.369 273.083C235.271 272.621 237.187 273.823 237.651 275.768Z" fill="white"/>
<path d="M231.143 286.644C231.606 288.589 230.44 290.54 228.539 291.002C226.638 291.464 224.721 290.262 224.257 288.317C223.794 286.373 224.96 284.421 226.861 283.959C228.762 283.497 230.679 284.699 231.143 286.644Z" fill="white"/>
<path d="M220.752 294.742C221.216 296.687 220.05 298.638 218.149 299.1C216.247 299.562 214.331 298.36 213.867 296.415C213.404 294.471 214.57 292.519 216.471 292.057C218.372 291.595 220.289 292.797 220.752 294.742Z" fill="white"/>
<path d="M207.512 298.109C207.975 300.054 206.809 302.005 204.908 302.467C203.007 302.93 201.09 301.728 200.627 299.783C200.164 297.838 201.329 295.886 203.231 295.424C205.132 294.962 207.049 296.164 207.512 298.109Z" fill="white"/>
<path d="M194.947 294.627C195.41 296.572 194.244 298.523 192.343 298.985C190.442 299.447 188.525 298.245 188.062 296.301C187.599 294.356 188.764 292.404 190.666 291.942C192.567 291.48 194.484 292.682 194.947 294.627Z" fill="white"/>
<path d="M183.452 285.21C183.916 287.155 182.75 289.106 180.849 289.568C178.947 290.03 177.031 288.828 176.567 286.884C176.104 284.939 177.27 282.987 179.171 282.525C181.072 282.063 182.989 283.265 183.452 285.21Z" fill="white"/>
<path d="M178.378 271.542C178.841 273.487 177.675 275.438 175.774 275.9C173.873 276.362 171.956 275.16 171.493 273.215C171.03 271.27 172.195 269.319 174.097 268.857C175.998 268.395 177.915 269.597 178.378 271.542Z" fill="white"/>
<path d="M178.464 256.615C178.927 258.559 177.762 260.511 175.86 260.973C173.959 261.435 172.042 260.233 171.579 258.288C171.116 256.343 172.282 254.392 174.183 253.93C176.084 253.468 178.001 254.67 178.464 256.615Z" fill="white"/>
<path d="M186.272 247.188C186.736 249.132 185.57 251.084 183.669 251.546C181.767 252.008 179.851 250.806 179.387 248.861C178.924 246.916 180.09 244.965 181.991 244.503C183.892 244.041 185.809 245.243 186.272 247.188Z" fill="white"/>
<path d="M196.602 241.023C197.066 242.968 195.9 244.919 193.999 245.381C192.097 245.843 190.181 244.641 189.717 242.696C189.254 240.751 190.42 238.8 192.321 238.338C194.222 237.876 196.139 239.078 196.602 241.023Z" fill="white"/>
<path d="M292.084 247.617C293.651 254.195 289.695 260.638 283.476 262.15C277.258 263.661 270.833 259.741 269.266 253.163C267.699 246.584 271.656 240.141 277.874 238.63C284.093 237.118 290.518 241.038 292.084 247.617Z" fill="white" stroke="white" stroke-width="8.40238"/>
<path d="M283.65 219.674C284.113 221.618 282.948 223.57 281.046 224.032C279.145 224.494 277.228 223.292 276.765 221.347C276.302 219.402 277.468 217.451 279.369 216.989C281.27 216.527 283.187 217.729 283.65 219.674Z" fill="white"/>
<path d="M295.975 222.466C296.439 224.411 295.273 226.362 293.372 226.824C291.47 227.286 289.553 226.084 289.09 224.14C288.627 222.195 289.793 220.243 291.694 219.781C293.595 219.319 295.512 220.521 295.975 222.466Z" fill="white"/>
<path d="M307.096 230.939C307.559 232.884 306.393 234.835 304.492 235.297C302.591 235.759 300.674 234.557 300.211 232.612C299.748 230.667 300.913 228.716 302.815 228.254C304.716 227.792 306.633 228.994 307.096 230.939Z" fill="white"/>
<path d="M313.472 242.414C313.936 244.359 312.77 246.31 310.869 246.772C308.967 247.234 307.051 246.032 306.587 244.088C306.124 242.143 307.29 240.191 309.191 239.729C311.092 239.267 313.009 240.469 313.472 242.414Z" fill="white"/>
<path d="M313.385 257.341C313.849 259.286 312.683 261.238 310.782 261.7C308.88 262.162 306.964 260.96 306.5 259.015C306.037 257.07 307.203 255.119 309.104 254.657C311.005 254.195 312.922 255.397 313.385 257.341Z" fill="white"/>
<path d="M306.877 268.217C307.341 270.162 306.175 272.113 304.274 272.575C302.372 273.038 300.456 271.836 299.992 269.891C299.529 267.946 300.695 265.995 302.596 265.532C304.497 265.07 306.414 266.272 306.877 268.217Z" fill="white"/>
<path d="M296.487 276.315C296.951 278.26 295.785 280.211 293.884 280.673C291.982 281.136 290.065 279.934 289.602 277.989C289.139 276.044 290.305 274.093 292.206 273.63C294.107 273.168 296.024 274.37 296.487 276.315Z" fill="white"/>
<path d="M283.247 279.682C283.71 281.627 282.544 283.579 280.643 284.041C278.742 284.503 276.825 283.301 276.362 281.356C275.898 279.411 277.064 277.46 278.965 276.998C280.867 276.536 282.784 277.738 283.247 279.682Z" fill="white"/>
<path d="M270.682 276.2C271.145 278.145 269.979 280.097 268.078 280.559C266.177 281.021 264.26 279.819 263.797 277.874C263.334 275.929 264.499 273.978 266.401 273.516C268.302 273.053 270.219 274.255 270.682 276.2Z" fill="white"/>
<path d="M259.187 266.783C259.65 268.728 258.485 270.68 256.583 271.142C254.682 271.604 252.765 270.402 252.302 268.457C251.839 266.512 253.005 264.561 254.906 264.099C256.807 263.636 258.724 264.838 259.187 266.783Z" fill="white"/>
<path d="M254.113 253.115C254.576 255.06 253.41 257.011 251.509 257.473C249.608 257.935 247.691 256.733 247.228 254.788C246.764 252.844 247.93 250.892 249.831 250.43C251.733 249.968 253.65 251.17 254.113 253.115Z" fill="white"/>
<path d="M254.198 238.188C254.661 240.133 253.495 242.084 251.594 242.546C249.693 243.008 247.776 241.806 247.313 239.861C246.849 237.916 248.015 235.965 249.916 235.503C251.818 235.041 253.734 236.243 254.198 238.188Z" fill="white"/>
<path d="M262.007 228.761C262.471 230.706 261.305 232.657 259.404 233.119C257.502 233.581 255.585 232.379 255.122 230.434C254.659 228.489 255.825 226.538 257.726 226.076C259.627 225.614 261.544 226.816 262.007 228.761Z" fill="white"/>
<path d="M272.337 222.596C272.801 224.541 271.635 226.492 269.734 226.954C267.832 227.416 265.916 226.214 265.452 224.269C264.989 222.325 266.155 220.373 268.056 219.911C269.957 219.449 271.874 220.651 272.337 222.596Z" fill="white"/>
<path d="M252.747 305.129C252.759 305.085 252.771 305.063 252.776 305.055C252.782 305.046 252.788 305.039 252.794 305.033C252.81 305.018 252.845 304.994 252.899 304.981C252.954 304.968 252.995 304.973 253.015 304.979C253.024 304.981 253.032 304.985 253.041 304.99C253.05 304.996 253.07 305.009 253.101 305.043L271.96 325.671C271.988 325.702 272 325.722 272.004 325.732C272.009 325.742 272.012 325.75 272.014 325.76C272.019 325.782 272.021 325.822 272.005 325.873C271.99 325.923 271.966 325.955 271.95 325.971C271.943 325.978 271.935 325.984 271.925 325.989C271.916 325.994 271.895 326.005 271.855 326.015L245.489 332.423C245.449 332.433 245.425 332.433 245.415 332.433C245.404 332.432 245.395 332.431 245.385 332.428C245.364 332.421 245.328 332.403 245.292 332.366C245.255 332.328 245.238 332.291 245.233 332.27C245.23 332.26 245.229 332.251 245.229 332.24C245.229 332.229 245.23 332.206 245.241 332.165L252.747 305.129Z" stroke="white" stroke-width="8.40239"/>
<path d="M149.199 183.292L135.475 114.539C135.041 112.362 137.085 110.507 139.21 111.15L178.85 123.153C180.457 123.639 182.144 122.684 182.553 121.056L197.227 62.6885C197.84 60.2487 201.036 59.6567 202.483 61.7148L235.826 109.149C236.888 110.66 239.063 110.829 240.346 109.5L273.768 74.8852C275.442 73.1514 278.376 74.0581 278.78 76.4339L292.382 156.386" stroke="white" stroke-width="11.7579"/>
<path d="M154.914 181.899C155.674 185.056 153.731 188.231 150.574 188.991C147.417 189.75 144.242 187.807 143.482 184.651C142.723 181.494 144.666 178.319 147.822 177.559C150.979 176.799 154.154 178.742 154.914 181.899Z" fill="white"/>
</svg>
